<?xml version="1.0" encoding="UTF-8" standalone="no"?>
<!-- Created with Inkscape (http://www.inkscape.org/) -->

<svg
   xmlns:dc="http://purl.org/dc/elements/1.1/"
   xmlns:cc="http://creativecommons.org/ns#"
   xmlns:rdf="http://www.w3.org/1999/02/22-rdf-syntax-ns#"
   xmlns:svg="http://www.w3.org/2000/svg"
   xmlns="http://www.w3.org/2000/svg"
   xmlns:xlink="http://www.w3.org/1999/xlink"
   xmlns:sodipodi="http://sodipodi.sourceforge.net/DTD/sodipodi-0.dtd"
   xmlns:inkscape="http://www.inkscape.org/namespaces/inkscape"
   width="795"
   height="605"
   viewBox="0 0 210.34374 160.07293"
   version="1.1"
   id="svg8"
   inkscape:version="0.92.3 (2405546, 2018-03-11)"
   sodipodi:docname="drawing.svg">
  <defs
     id="defs2">
    <linearGradient
       inkscape:collect="always"
       id="linearGradient1434">
      <stop
         style="stop-color:#36c4f4;stop-opacity:1;"
         offset="0"
         id="stop1430" />
      <stop
         style="stop-color:#36c4f4;stop-opacity:0;"
         offset="1"
         id="stop1432" />
    </linearGradient>
    <linearGradient
       inkscape:collect="always"
       xlink:href="#linearGradient1434"
       id="linearGradient1436"
       x1="112.44712"
       y1="236.03905"
       x2="213.46106"
       y2="236.03905"
       gradientUnits="userSpaceOnUse"
       gradientTransform="translate(9.0621074,5.2618688)" />
  </defs>
  <sodipodi:namedview
     id="base"
     pagecolor="#ffffff"
     bordercolor="#666666"
     borderopacity="1.0"
     inkscape:pageopacity="0.0"
     inkscape:pageshadow="2"
     inkscape:zoom="0.90509668"
     inkscape:cx="330.43341"
     inkscape:cy="228.97169"
     inkscape:document-units="mm"
     inkscape:current-layer="layer1"
     showgrid="false"
     fit-margin-top="0"
     fit-margin-left="0"
     fit-margin-right="0"
     fit-margin-bottom="0"
     units="px"
     inkscape:window-width="1920"
     inkscape:window-height="1017"
     inkscape:window-x="1672"
     inkscape:window-y="-8"
     inkscape:window-maximized="1" />
  <metadata
     id="metadata5">
    <rdf:RDF>
      <cc:Work
         rdf:about="">
        <dc:format>image/svg+xml</dc:format>
        <dc:type
           rdf:resource="http://purl.org/dc/dcmitype/StillImage" />
        <dc:title></dc:title>
      </cc:Work>
    </rdf:RDF>
  </metadata>
  <g
     inkscape:label="Layer 1"
     inkscape:groupmode="layer"
     id="layer1"
     transform="translate(-22.503142,-124.41169)">
    <text
       xml:space="preserve"
       style="font-size:25.39999962px;line-height:1.25;font-family:Ebrima;-inkscape-font-specification:Ebrima;letter-spacing:0px;word-spacing:0px;fill:#0dbff3;fill-opacity:1;stroke:#000000;stroke-width:0.7;stroke-miterlimit:4;stroke-dasharray:none;stroke-opacity:1"
       x="121.0224"
       y="248.70926"
       id="text839"><tspan
         sodipodi:role="line"
         id="tspan837"
         x="121.0224"
         y="248.70926"
         style="font-style:normal;font-variant:normal;font-weight:normal;font-stretch:normal;font-size:21.16666603px;line-height:1;font-family:Rubik;-inkscape-font-specification:Rubik;fill:none;fill-opacity:1;stroke:#000000;stroke-width:0.7;stroke-miterlimit:4;stroke-dasharray:none;stroke-opacity:1">Хімчистка</tspan></text>
    <g
       id="g835"
       transform="matrix(0.59177049,0,0,0.59177049,8.9876231,116.69417)">
      <path
         id="path815"
         d="m 61.1082,13.319747 c -2.357,0.015 -4.834,0.33 -6.006,0.938 -0.944,0.489 -3.022,2.04 -4.619,3.447 -2.698,2.377 -2.902,2.763 -2.902,5.467 0,1.6 0.427,3.767 0.95,4.814 0.522,1.047 1.167,3.22 1.432,4.83 0.686,4.158 2.283,7.565 3.72,7.941 0.868,0.227 1.231,0.832 1.231,2.048 0,0.95 0.275,1.896 0.611,2.104 0.336,0.207 0.611,0.893 0.611,1.522 0,1.316 4.119,4.844 7.479,6.408 l 2.284,1.063 -1.963,1.323 c -1.08,0.727 -2.382,2.088 -2.895,3.024 -0.853,1.555 -0.84,1.77 0.137,2.498 0.615,0.458 1.07,1.597 1.07,2.68 0,3.489 -1.014,2.544 -2.684,-2.502 -1.61,-4.861 -5.174,-12.412 -5.232,-11.083 -0.016,0.36 -1.263,1.272 -2.77,2.025 -1.508,0.753 -2.952,1.711 -3.209,2.13 -0.512,0.835 -3.73,2.27 -5.846,2.606 -0.739,0.118 -2.197,0.343 -3.24,0.501 -1.043,0.158 -3.226,0.781 -4.85,1.385 -2.897,1.075 -2.985,1.186 -4.536,5.675 -0.87,2.518 -2.194,5.738 -2.943,7.156 -1.348,2.551 -2.001,8.414 -1.1,9.873 0.229,0.37 0.122,1.707 -0.238,2.972 -0.613,2.155 -1.765,11.398 -2.124,17.032003 -0.088,1.38 -0.318,2.765 -0.51,3.076 -0.892,1.443 -0.417,17.497 0.757,25.58 0.293,2.017 0.556,6.854 0.584,10.75 0.05,6.895 0.091,7.1 1.545,7.762 1.345,0.613 1.436,0.881 0.917,2.692 -0.927,3.232 -0.675,5.665 0.819,7.886 0.775,1.154 2.029,2.168 2.82,2.281 0.784,0.113 2.286,0.73 3.34,1.373 2.542,1.55 4.78,1.5 5.798,-0.131 0.679,-1.088 0.678,-1.39 -0.006,-1.824 -0.451,-0.286 -1.162,-0.525 -1.58,-0.53 -0.416,-0.005 -1.101,-0.559 -1.521,-1.231 -0.42,-0.672 -1.105,-1.222 -1.522,-1.222 -0.416,0 -0.923,-0.756 -1.125,-1.68 -0.202,-0.925 -0.876,-3.056 -1.498,-4.737 -0.621,-1.68 -1.305,-3.674 -1.518,-4.43 -0.435,-1.539 -1.03,-1.685 -2.862,-0.705 -0.987,0.529 -1.199,0.496 -0.999,-0.153 0.14,-0.453 1.447,-1.432 2.906,-2.176 2.649,-1.352 2.652,-1.352 4.188,-0.144 0.845,0.665 1.692,1.052 1.883,0.861 0.191,-0.19 0.018,-0.551 -0.385,-0.8 -0.46,-0.285 -0.605,-1.24 -0.387,-2.564 0.19,-1.161 0.33,-2.661 0.311,-3.334 -0.135,-4.802 0.017,-24.158 0.223,-28.31 0.138,-2.8 0.537,-5.962 0.886,-7.028 0.349,-1.067 0.844,-3.842003 1.101,-6.167003 0.257,-2.325 0.779,-4.331 1.159,-4.458 0.417,-0.138 1.097,1.539 1.715,4.229 0.562,2.451 1.35,5.694003 1.752,7.207003 1.316,4.957 0.785,13.538 -1.372,22.18 -1.938,7.765 -1.947,7.872 -1.254,14.973 0.597,6.13 1.383,10.022 2.86,14.18 0.18,0.504 0.436,3.904 0.57,7.554 0.179,4.868 0.633,7.799 1.704,11 0.804,2.4 1.628,6.425 1.833,8.946 0.204,2.521 1.034,7.334 1.844,10.695 1.437,5.967 2.22,13.479 3.408,32.694 0.322,5.21 0.855,10.583 1.185,11.941 0.33,1.358 0.889,5.62 1.242,9.473 0.353,3.851 0.939,8.475 1.302,10.275 0.587,2.908 4.054,10.554 5.398,11.904 0.28,0.28 0.367,2.759 0.196,5.508 l -0.312,4.998 1.757,0.722 c 2.239,0.92 11.504,0.609 12.753,-0.428 1.179,-0.978 1.19,-4.713 0.023,-7.507 -0.53,-1.267 -0.984,-4.752 -1.105,-8.477 -0.143,-4.408 -0.498,-6.789 -1.168,-7.853 -0.552,-0.876 -1.129,-3.665 -1.352,-6.537 -0.213,-2.755 -1.051,-7.623 -1.862,-10.818 -1.452,-5.725 -1.47,-6.147 -1.264,-29.214 0.236,-26.297 0.838,-41.915 1.637,-42.409 0.295,-0.182 1.4,1.512 2.454,3.765 1.786,3.817 1.946,4.725 2.352,13.335 0.24,5.081 0.774,9.957 1.187,10.834 0.412,0.878 1.707,2.053 2.877,2.61 l 2.126,1.014 -0.411,4.113 -0.584,5.84 c -0.095,0.95 -0.48,2.037 -0.858,2.414 -0.377,0.377 -0.686,2.155 -0.686,3.95 0,1.796 -0.404,5.247 -0.898,7.67 -1.065,5.217 -2.15,18.781 -1.746,21.821 0.435,3.276 0.824,12.537 0.775,18.435 -0.057,6.812 0.85,9.777 3.808,12.449 1.93,1.744 2.82,2.117 5.053,2.117 2.334,0 3.006,-0.314 4.848,-2.268 2.045,-2.167 2.128,-2.427 1.871,-5.908 -0.304,-4.128 -1.963,-10.154 -3.052,-11.086 -0.4,-0.342 -0.92,-2.02 -1.155,-3.73 -0.438,-3.185 0.448,-5.12 2.344,-5.12 0.998,0 2.82,-3.868 2.816,-5.979 -0.002,-0.913 0.388,-2.897 0.866,-4.41 0.478,-1.512 1.194,-4.4 1.591,-6.416 0.397,-2.017 0.974,-4.904 1.28,-6.417 0.308,-1.512 0.798,-4.537 1.09,-6.722 0.744,-5.548 1.886,-11.407 2.882,-14.775 0.982,-3.322 0.693,-4.56 -1.517,-6.48 -0.883,-0.768 -1.16,-1.233 -0.614,-1.035 0.714,0.26 1.074,-0.074 1.288,-1.194 0.36,-1.88 -0.517,-17.196 -1.031,-18.03 -0.2,-0.324 -0.359,-7.685 -0.352,-16.357 0.013,-14.31 -0.129,-16.53 -1.53,-24.018 -2.273,-12.153 -2.567,-13.192 -5.354,-18.908 -2.522,-5.17 -2.551,-5.308 -2.552,-11.953 -0.001,-5.76 0.98,-15.245003 1.856,-17.923003 0.178,-0.545 0.767,-0.215 1.794,1.005 0.84,1 1.528,2.074 1.528,2.388 0,0.314 0.825,1.815 1.833,3.337 1.008,1.521 2.108,4.25 2.445,6.063003 0.392,2.115 1.05,3.597 1.834,4.135 0.856,0.587 1.222,1.525 1.222,3.132 0,1.262 0.65,3.772 1.446,5.579 1.479,3.36 2.1,7.595 2.342,15.965 0.075,2.604 0.354,4.736 0.619,4.736 0.265,0 0.482,-0.269 0.482,-0.596 0,-1.885 7.203,-3.226 9.817,-1.827 2.12,1.134 1.25,1.73 -2.03,1.392 -2.21,-0.228 -3.942,-0.027 -5.545,0.643 -2.008,0.839 -2.271,1.167 -1.89,2.361 0.243,0.763 0.413,2.35 0.377,3.527 -0.056,1.887 0.03,2.014 0.733,1.079 0.439,-0.583 0.976,-0.881 1.195,-0.662 0.219,0.219 0.398,0.077 0.398,-0.315 0,-0.393 -0.25,-0.714 -0.554,-0.714 -0.8,0 -0.047,-2.43 0.778,-2.511 2.197,-0.214 5.985,-0.039 6.316,0.292 0.732,0.732 1.365,0.384 1.006,-0.553 -0.199,-0.517 0.14,-1.492 0.75,-2.167 1.034,-1.142 1.056,-1.64 0.32,-7.158 -0.436,-3.262 -0.856,-7.168 -0.934,-8.68 -0.193,-3.732 -1.525,-12.022 -2.229,-13.874 -0.315,-0.829 -0.435,-1.73 -0.266,-2.003 0.168,-0.273 -0.103,-1.281 -0.603,-2.24 -0.5,-0.96 -0.914,-2.157003 -0.92,-2.661003 -0.004,-0.504 -0.97,-2.124 -2.142,-3.6 -1.173,-1.476 -2.167,-2.92 -2.21,-3.208 -0.175,-1.204 -0.29,-1.577 -1.396,-4.497 -0.637,-1.681 -1.528,-3.599 -1.981,-4.262 -0.453,-0.663 -0.824,-1.815 -0.824,-2.56 0,-0.746 -0.275,-1.526 -0.611,-1.734 -0.336,-0.208 -0.61,-1.212 -0.61,-2.232 0,-1.02 -1.101,-4.036 -2.446,-6.702 -1.344,-2.667 -2.444,-5.405 -2.444,-6.085 0,-1.453 -1.4,-4.333 -2.583,-5.315 -0.457,-0.379 -3.156,-1.228 -5.999,-1.886 -10.215,-2.366 -14.07,-3.575 -14.867,-4.665 -0.69,-0.945 -0.87,0.087 -1.234,7.109 -0.235,4.517 -0.826,10.128 -1.316,12.467 -0.49,2.339 -0.89,4.81 -0.89,5.492 0,0.682 -0.553,1.713 -1.23,2.292 -1.777,1.522 -2.264,1.293 -0.727,-0.344 1.06,-1.128 1.238,-1.85 0.929,-3.757 -0.305,-1.877 -0.525,-2.186 -1.07,-1.507 -0.378,0.47 -1.491,1.542 -2.474,2.383 -1.23,1.052 -0.988,0.597 0.781,-1.461 1.695,-1.972 2.57,-3.571 2.57,-4.7 0,-2.156 -0.896,-2.753 -1.945,-1.298 -0.444,0.614 -1.219,1.359 -1.723,1.655 -0.807,0.474 -0.81,0.397 -0.029,-0.648 a 51.797,51.797 0 0 1 2.018,-2.483 c 0.793,-0.908 1.01,-1.775 0.727,-2.902 -0.362,-1.44 -1.494,-2.307 -1.494,-1.143 0,0.255 -0.586,0.83 -1.303,1.278 l -1.304,0.814 1.304,-1.83 c 0.717,-1.008 1.308,-2.202 1.313,-2.654 0.005,-0.453 0.25,-1.203 0.544,-1.668 0.449,-0.708 0.766,-0.683 1.96,0.153 1.966,1.377 2.548,1.248 1.71,-0.377 -1.24,-2.406 -3.177,-4.152 -4.233,-3.817 -0.67,0.213 -1.248,-0.205 -1.722,-1.245 -0.87,-1.908 -0.88,-2.119 -0.102,-2.119 0.337,0 0.611,0.413 0.611,0.917 0,0.504 0.275,0.917 0.612,0.917 0.336,0 0.61,-1.087 0.61,-2.415 0,-1.327 0.354,-2.633 0.786,-2.902 1.23,-0.764 3.492,-3.922 3.492,-4.873 0,-0.626 -0.35,-0.53 -1.299,0.353 -0.882,0.822 -2.054,1.18 -3.651,1.116 a 7.89,7.89 0 0 1 -0.795,-0.07 c -0.105,0.293 -0.48,0.484 -1.072,0.3 a 3.095,3.095 0 0 0 -0.515,-0.108 6.681,6.681 0 0 1 -1.018,0.215 0.623,0.623 0 0 1 -0.386,0.043 c -0.11,0.01 -0.222,0.023 -0.331,0.031 a 5.195,5.195 0 0 0 -0.712,-0.034 c -0.424,-0.02 -0.725,-0.344 -1.089,-0.505 l 0.01,0.006 a 0.708,0.708 0 0 1 -0.128,-0.053 c 0.04,0.013 0.08,0.03 0.118,0.047 -0.559,-0.31 -0.65,-0.433 -0.515,-0.256 0.119,0.072 0.244,0.133 0.355,0.216 0.016,0.012 -0.041,0.008 -0.06,0.004 a 5.71,5.71 0 0 1 -0.404,-0.106 c -0.385,-0.115 -0.49,-0.255 -0.552,-0.502 a 3.809,3.809 0 0 1 -0.34,-0.242 15.71,15.71 0 0 1 -0.193,-0.105 c -0.16,-0.02 -0.297,-0.043 -0.303,-0.071 l -0.006,-0.032 c -0.174,-0.051 -0.208,-0.108 -0.066,-0.373 -0.016,-0.099 -0.019,-0.167 -0.027,-0.248 -0.4,0.012 -0.228,-0.26 0.021,-0.567 a 0.224,0.224 0 0 1 0.082,-0.102 c 0.335,-0.399 0.698,-0.803 0.03,-0.675 -0.059,0.011 -0.118,0.025 -0.177,0.034 -0.022,0.003 0.042,-0.009 0.062,-0.017 0.085,-0.034 0.166,-0.077 0.25,-0.11 0.235,-0.087 0.469,-0.164 0.677,-0.313 0.098,-0.034 0.2,-0.054 0.295,-0.096 0.387,-0.173 0.764,-0.402 1.204,-0.35 0.192,0 0.4,-0.015 0.586,0.038 a 1.94,1.94 0 0 1 0.331,-0.16 c 0.115,-0.048 0.28,0.004 0.4,-0.007 l 0.175,0.024 c 0.238,-0.274 0.547,-0.299 0.862,-0.293 0.11,0.002 0.22,0.006 0.328,0.005 h 2.316 c 0.16,0 0.3,0.02 0.422,0.055 0.93,-0.2 2.184,-0.195 2.87,0.023 1.169,0.37 1.224,0.304 0.485,-0.587 -0.534,-0.643 -1.853,-1.03 -3.662,-1.076 -1.434,-0.036 -2.19,-0.175 -1.827,-0.32 l -0.014,-10e-4 c -0.06,-0.003 -0.124,0.025 -0.178,0.002 -0.072,-0.033 -0.149,-0.063 -0.224,-0.095 -0.03,0.005 -0.06,0.009 -0.089,0.015 -0.289,0.016 -0.577,-0.005 -0.865,-0.017 h -0.195 c -0.032,-0.006 -0.064,-0.005 -0.097,-0.006 -0.051,0 -0.102,-0.002 -0.154,0 -0.145,0.007 -0.292,0.024 -0.431,0.002 -0.125,-0.031 -0.132,-0.033 -0.187,-0.048 -0.116,0.03 -0.244,0.051 -0.397,0.049 -0.065,-0.001 -0.13,-0.005 -0.196,-0.007 a 2.73,2.73 0 0 0 -0.344,0.087 c -0.135,0.042 -0.252,0.132 -0.386,0.177 -0.081,0.028 -0.166,0.044 -0.25,0.066 a 1.974,1.974 0 0 1 -0.773,0.098 c -0.234,0.284 -0.21,0.249 -0.48,0.42 -0.271,0.189 -0.672,0.626 -1.038,0.567 -0.207,-0.034 -0.383,-0.173 -0.575,-0.259 -0.195,-0.087 -0.267,-0.157 -0.258,-0.216 a 3.789,3.789 0 0 1 -1.282,-0.642 c -0.088,-0.067 -0.16,-0.15 -0.242,-0.223 -0.295,-0.293 -0.495,-0.464 -0.813,-0.739 -10e-4,0 -0.219,-0.178 -0.23,-0.193 -0.062,-0.085 -0.099,-0.187 -0.16,-0.273 -0.019,-0.024 0.05,0.105 0.026,0.087 -0.076,-0.058 -0.11,-0.154 -0.167,-0.231 -0.052,-0.201 -0.178,-0.27 -0.276,-0.439 -0.093,-0.159 -0.12,-0.255 -0.18,-0.422 10e-4,0.014 0.01,0.054 10e-4,0.042 -0.086,-0.135 -0.141,-0.292 -0.227,-0.429 -0.232,-0.373 0.146,0.302 -0.162,-0.264 a 1.088,1.088 0 0 1 -0.158,-0.14 c -0.253,-0.276 -0.539,-0.522 -0.795,-0.794 -0.06,-0.04 -0.116,-0.086 -0.174,-0.13 l 0.04,0.04 -0.051,-0.05 0.011,0.01 -0.102,-0.105 c -0.554,-0.1 -0.26,0.039 -0.623,-0.352 -0.014,-0.015 -0.068,-0.02 -0.064,0 0.01,0.062 0.319,0.13 -0.15,-0.023 -0.26,-0.168 -0.163,-0.1 -0.332,-0.31 -0.013,-0.01 -0.026,-0.02 -0.037,-0.032 -0.003,-0.003 0,-0.015 0.003,-0.012 0.026,0.03 0.016,0.021 0.034,0.044 l 0.055,0.046 c 0.307,0.262 0.29,0.04 0.232,-0.253 -0.025,-0.025 -0.048,-0.046 -0.077,-0.078 -0.029,-0.033 -0.077,-0.062 -0.078,-0.106 -0.004,-0.214 0.042,-0.426 0.063,-0.64 0.026,-0.01 0.023,-0.01 0.045,-0.02 -0.028,-0.095 -0.004,-0.16 0.127,-0.158 0.039,0 0.086,0.005 0.143,0.017 l 0.024,0.006 a 0.228,0.228 0 0 1 0.144,-0.03 l 0.2,0.019 c 0.113,0.01 0.184,0.042 0.226,0.087 0.08,0.007 0.16,0.01 0.235,0.033 0.201,0.06 0.136,0.076 0.238,0.153 0.143,0.108 0.309,0.189 0.43,0.324 0.03,0.02 0.053,0.048 0.084,0.064 0.103,0.054 0.226,0.077 0.313,0.153 a 0.831,0.831 0 0 1 0.125,0.132 0.54,0.54 0 0 1 0.131,0.3 c 0.034,0.037 0.115,0.06 0.096,0.103 -0.003,0.007 -0.014,0.006 -0.022,0.007 0.07,0.02 0.14,0.039 0.206,0.067 0.076,0.032 0.243,0.195 0.287,0.235 l 0.007,0.013 0.036,0.016 c 0.022,0 0.043,-0.003 0.064,0 0.264,0.041 0.291,0.098 0.493,0.248 0.02,0.024 0.068,0.062 0.096,0.09 0.317,0.186 0.493,0.56 0.723,0.829 0.094,0.02 0.168,0.06 0.235,0.108 0.23,-0.01 0.629,0.174 0.695,0.199 l 0.202,0.13 c 0.05,-10e-4 0.1,-0.004 0.15,-0.003 l 0.154,0.005 c 0.018,-0.021 0.044,-0.022 0.078,0.002 0.072,0.003 0.067,0.01 0.03,0.023 l 0.01,0.007 0.012,0.016 c 0.023,-0.006 0.05,-0.012 0.052,0.003 v 0.003 c 0.014,-0.002 0.028,-0.001 0.042,-0.004 0.102,-0.019 0.202,-0.044 0.303,-0.066 0.539,-0.121 0.295,-0.078 0.723,-0.141 a 0.827,0.827 0 0 0 0.124,-0.034 c 0.085,-0.121 0.014,0.075 0.677,-0.228 0.085,-0.039 -0.19,0.054 -0.278,0.022 -0.063,-0.023 0.13,-0.032 0.193,-0.053 0.161,-0.054 0.32,-0.115 0.48,-0.172 l 0.578,-0.192 c 0.019,-0.006 0.035,-0.008 0.053,-0.013 0.084,-0.287 0.308,-0.447 0.555,-0.447 0.124,0 0.253,0.041 0.372,0.125 a 0.857,0.857 0 0 1 0.203,0.062 c 0.675,0.285 0.366,0.029 0.627,1.03 l -0.056,0.075 c 0.018,0.028 0.05,0.07 0.07,0.099 0.04,0.016 0.08,0.048 0.125,0.092 0.07,-0.054 0.137,0.137 0.212,0.194 0.124,0.097 0.255,0.186 0.384,0.277 h 2.435 c 0.127,0 0.237,0.015 0.34,0.038 0.13,-0.204 0.303,-0.4 0.511,-0.56 0.856,-0.656 0.816,-0.747 -0.33,-0.764 -1.513,-0.023 -2.499,-1.04 -2.683,-2.77 -0.234,-2.205 -0.009,-2.255 1.593,-0.352 5.267,6.26 12.402,-3.998 8.046,-11.568 -0.774,-1.344 -2.44,-2.97 -3.82,-3.726 -1.346,-0.737 -2.918,-1.745 -3.493,-2.24 -0.694,-0.596 -2.93,-0.883 -5.288,-0.868 z m -2.697,22.185 a 0.735,0.735 0 0 1 -0.045,0.005 0.356,0.356 0 0 1 0.052,0.084 h 0.014 c -0.006,-0.027 -0.017,-0.065 -0.021,-0.089 z m -0.075,-0.029 a 0.23,0.23 0 0 0 -0.03,-0.023 l -0.078,-0.002 c -0.014,0.017 -0.021,0.053 -0.028,0.091 0.059,-0.032 0.105,-0.055 0.136,-0.066 z m -0.136,0.066 c -0.03,0.017 -0.057,0.031 -0.085,0.056 l 0.01,0.012 0.07,-0.01 c 0.003,-0.018 0.003,-0.041 0.005,-0.058 z m 9.242,-17.93 2.291,2.574 c 1.26,1.416 2.292,3.21 2.292,3.985 0,1.266 -0.216,1.376 -2.095,1.071 -1.546,-0.25 -2.572,0 -3.914,0.955 -2.14,1.524 -3.454,1.757 -4.977,0.494 -0.165,0.13 -0.416,0.22 -0.755,0.22 h -0.735 c -0.071,0 -0.506,0.022 -0.792,-0.02 -0.18,0.107 -0.439,0.152 -0.772,0.08 -0.022,-0.006 -0.162,-0.018 -0.327,-0.034 -0.041,0.009 -0.077,0.021 -0.121,0.027 -0.098,0.267 -0.414,0.493 -0.957,0.49 h -0.157 c -0.198,0.255 -0.087,0.12 -0.544,0.663 a 1.314,1.314 0 0 1 -0.47,0.374 c -0.064,0.228 -0.274,0.439 -0.642,0.525 -0.306,0.302 -0.576,0.497 -1.063,-0.142 -0.184,-0.149 -0.277,-0.394 -0.264,-0.761 0.047,-0.149 0.044,-0.322 0.14,-0.445 0.013,-0.018 0.032,-0.031 0.049,-0.047 v -0.033 c 0,-0.136 0.154,-0.222 0.232,-0.333 0.315,-0.27 0.828,-0.716 1.125,-0.934 0.107,-0.079 0.207,-0.182 0.311,-0.276 l 0.004,-0.034 c -0.132,-0.162 -0.223,-0.408 -0.228,-0.746 l -0.002,-0.251 c -0.002,-0.275 0,-0.55 0,-0.825 a 1.903,1.903 0 0 1 -0.065,-0.587 c 0.01,-0.154 0.064,-0.298 0.081,-0.45 10e-4,0.003 0,0.007 0.002,0.008 0.134,0.034 0.273,0.054 0.412,0.071 0.069,-0.258 0.252,-0.49 0.468,-0.713 l 0.03,-0.056 c 0.015,-0.033 0.049,-0.048 0.085,-0.062 0.152,-0.148 0.312,-0.293 0.454,-0.44 0.288,-0.296 0.572,-0.413 0.8,-0.404 l 0.013,0.002 c 0.239,-0.33 0.495,-0.49 0.715,-0.516 h 0.021 c 0.614,-1.085 2.597,-1.848 6.299,-2.715 z m -13.41,9.714 c -0.058,0.01 -0.236,0.09 -0.247,0.162 v 0.018 c 0.087,-0.05 0.178,-0.097 0.252,-0.162 0.019,-0.016 0.013,-0.02 -0.006,-0.018 z m -0.831,6.615 c 0.015,0.027 0.045,0.043 0.072,0.056 l -0.038,-0.039 c -0.01,-0.008 -0.04,-0.028 -0.034,-0.017 z m 9.65,1.213 0.002,0.01 c 0.023,0.06 0.044,0.105 0.066,0.15 0,-0.006 0.004,-0.012 0.005,-0.018 0.007,-0.043 -0.066,-0.148 -0.073,-0.142 z m -1.138,0.737 c -0.002,0 -0.005,0 -0.007,0.002 l 0.022,0.027 -0.015,-0.03 z m -1.373,2.49 -0.015,0.01 0.011,0.008 0.028,-0.01 -0.024,-0.007 z m 2.335,2.064 c -0.048,0 -0.148,0 -0.14,0.047 0.111,-0.01 0.09,-0.011 0.14,-0.047 z m 0.794,0.152 c -0.008,0.015 -0.012,0.027 -0.018,0.04 l 0.015,0.003 z m 5.465,14.395 c 0.355,0 0.647,0.275 0.647,0.611 0,0.336 -0.122,0.611 -0.27,0.611 -0.148,0 -0.44,-0.275 -0.647,-0.611 -0.208,-0.336 -0.086,-0.61 0.27,-0.61 z m -2.636,1.853 c 0.378,-0.01 1.03,0.393 1.449,0.897 0.966,1.164 0.572,1.172 -0.952,0.02 -0.653,-0.494 -0.876,-0.907 -0.497,-0.917 z m 24.747,17.978 c 1.587,-0.013 1.362,1.048 -0.732,1.633 -2.28,0.637 -4.844,0.603 -4.844,-0.064 0,-0.588 0.722,-0.813 4.786,-1.493 0.3,-0.05 0.564,-0.074 0.79,-0.076 z m 21.925,59.632003 c 0.504,0 1.329,0.267 1.833,0.593 0.815,0.526 0.815,0.592 0,0.592 -0.504,0 -1.33,-0.266 -1.833,-0.592 -0.815,-0.527 -0.815,-0.593 0,-0.593 z m 5.519,4.26 c -0.326,0 -0.434,0.412 -0.24,0.916 0.193,0.504 0.46,0.917 0.592,0.917 0.132,0 0.24,-0.413 0.24,-0.917 0,-0.504 -0.267,-0.917 -0.592,-0.917 z m 0.781,3.112 c -0.09,0.007 -0.031,0.243 0.156,0.733 0.229,0.603 0.57,0.942 0.759,0.754 0.188,-0.188 0,-0.682 -0.417,-1.096 -0.264,-0.262 -0.427,-0.396 -0.498,-0.39 z m -11.69,1.47 -0.051,2.75 c -0.029,1.513 0.359,3.538 0.861,4.501 0.502,0.963 0.913,2.534 0.913,3.492 0,1.117 0.439,1.977 1.222,2.397 0.678,0.362 1.222,1.279 1.222,2.058 0,0.772 0.184,1.588 0.408,1.812 0.63,0.63 0.653,0.557 0.578,-1.884 -0.042,-1.407 -0.482,-2.6 -1.139,-3.09 -1.184,-0.885 -1.435,-3.786 -0.415,-4.807 0.466,-0.465 0.214,-1.002 -0.873,-1.857 -0.84,-0.661 -1.798,-2.14 -2.127,-3.286 z m 12.98,1.239 c -0.039,0.008 -0.07,0.04 -0.09,0.102 -0.135,0.401 -0.641,0.578 -1.124,0.393 -0.482,-0.185 -0.876,-0.032 -0.876,0.34 0,0.372 -0.38,0.677 -0.842,0.677 -0.463,0 -1.19,0.419 -1.615,0.93 -0.425,0.513 -0.908,0.798 -1.072,0.634 -0.164,-0.164 -0.785,-0.04 -1.379,0.278 -0.911,0.488 -0.993,0.96 -0.528,3.029 0.302,1.347 0.618,4.228 0.7,6.4 0.142,3.694 0.252,3.968 1.68,4.193 3.07,0.485 3.382,0.383 4.583,-1.494 3.17,-4.955 3.913,-6.783 3.533,-8.693 -0.485,-2.443 -2.361,-6.67 -2.929,-6.788 a 0.116,0.116 0 0 0 -0.041,-0.001 z m -0.095,1.631 c 0.085,0.026 0.232,0.366 0.501,1.039 0.598,1.496 0.474,2.22 -0.256,1.49 -0.224,-0.225 -0.39,-0.98 -0.368,-1.681 0.018,-0.585 0.039,-0.874 0.123,-0.848 z m -90.931,4.03 c 0.041,0.012 0.088,0.107 0.137,0.293 0.155,0.594 0.144,1.42 -0.023,1.833 -0.167,0.414 -0.294,-0.072 -0.282,-1.08 0.009,-0.694 0.076,-1.07 0.168,-1.045 z m 5.722,1.35 c -1.319,0 -1.368,0.232 -0.38,1.814 0.84,1.346 1.282,1.157 1.411,-0.604 0.06,-0.798 -0.292,-1.21 -1.03,-1.21 z m 27.15,121.095 c 0.098,0.022 0.26,0.257 0.527,0.715 0.357,0.614 0.532,1.232 0.389,1.375 -0.433,0.433 -1.076,-0.493 -1.056,-1.522 0.008,-0.397 0.04,-0.59 0.14,-0.568 z"
         inkscape:connector-curvature="0"
         style="fill:#09a0e7;fill-opacity:1" />
      <path
         id="path817"
         d="m 149.5152,95.882747 c -0.463,0 -0.841,0.171 -0.841,0.38 0,0.21 0.378,0.282 0.84,0.162 0.462,-0.121 0.84,-0.293 0.84,-0.381 0,-0.089 -0.378,-0.161 -0.84,-0.161 z m 2.342,0.074 c -0.812,0.022 -0.848,0.4 -0.138,1.159 0.43,0.46 0.358,0.52 -0.4,0.338 -0.508,-0.122 -0.991,-0.022 -1.073,0.223 -0.082,0.245 -0.76,0.446 -1.507,0.446 -0.747,0 -1.156,0.124 -0.91,0.277 0.575,0.355 -3.562,4.200003 -4.53,4.210003 -0.615,0.005 -0.627,0.062 -0.085,0.413 0.439,0.283 0.47,0.425 0.105,0.466 -0.288,0.032 -0.667,0.083 -0.84,0.113 -0.59,0.1 -4.725,4.376 -4.725,4.884 0,0.28 -0.277,0.4 -0.616,0.27 -0.34,-0.13 -0.747,-0.027 -0.905,0.23 -0.174,0.28 -0.097,0.349 0.192,0.17 0.306,-0.19 0.392,-0.07 0.24,0.329 -0.133,0.344 -0.481,0.532 -0.776,0.42 -0.31,-0.12 -0.758,0.332 -1.064,1.07 -0.29,0.703 -0.695,1.174 -0.9,1.048 -0.204,-0.127 -0.371,-0.03 -0.371,0.215 0,0.245 -0.288,0.445 -0.64,0.445 -0.556,0 -0.547,-0.14 0.065,-1.075 0.545,-0.832 0.794,-0.95 1.1,-0.525 0.28,0.391 0.32,0.32 0.135,-0.244 -0.142,-0.437 0.04,-1.287 0.404,-1.89 0.576,-0.953 0.521,-0.932 -0.422,0.164 -0.597,0.693 -1.629,2.252 -2.293,3.465 -1.012,1.846 -1.095,2.206 -0.514,2.21 0.382,0.003 1.485,0.456 2.45,1.009 l 1.756,1.004 1.12,-2.374 c 1.187,-2.515 2.73,-4.565 5.706,-7.583 2.268,-2.3 4.034,-3.398 5.472,-3.4 0.61,0 1.929,-0.368 2.93,-0.816 l 1.82,-0.815 2.05,1.116 c 7.032,3.827 12.322,16.902 14.128,34.924 0.242,2.408 0.444,10.063 0.449,17.01 0.007,10.221 -0.153,13.911 -0.84,19.35 -1.248,9.88 -3.122,18.441 -5.964,27.247 -0.49,1.52 -0.46,1.68 0.461,2.426 1.698,1.374 0.618,1.326 -1.293,-0.058 -1.455,-1.055 -2.195,-1.304 -3.714,-1.254 -2.772,0.093 -2.946,0.053 -2.946,-0.671 0,-1.354 -1.251,-2.012 -3.72,-1.955 -2.158,0.05 -2.248,0.018 -1.005,-0.357 0.75,-0.227 1.365,-0.48 1.365,-0.56 0,-0.082 -1.587,-0.644 -3.527,-1.249 -3.896,-1.215 -5.361,-1.294 -9.703,-0.53 -2.353,0.415 -2.916,0.658 -2.82,1.219 0.082,0.48 -0.312,0.817 -1.26,1.074 -1.561,0.424 -2.01,0.295 -2.01,-0.577 0,-0.368 0.452,-0.624 1.155,-0.654 0.81,-0.034 0.918,-0.11 0.365,-0.251 -0.435,-0.112 -1.19,-0.015 -1.68,0.214 -0.49,0.229 -2.537,0.929 -4.55,1.556 -3.215,1 -3.585,1.214 -3.045,1.755 0.338,0.338 0.6,0.837 0.582,1.11 -0.023,0.348 -0.096,0.34 -0.245,-0.03 -0.117,-0.289 -0.464,-0.525 -0.772,-0.525 -0.308,0 -0.655,-0.237 -0.772,-0.525 -0.116,-0.29 -0.226,-0.089 -0.245,0.445 -0.018,0.533 0.143,0.86 0.358,0.728 0.215,-0.133 0.51,-0.05 0.655,0.185 0.145,0.235 0.064,0.427 -0.181,0.427 -0.245,0 -0.445,0.189 -0.445,0.42 0,0.23 0.203,0.42 0.45,0.42 0.248,0 0.734,0.283 1.08,0.63 0.347,0.346 0.995,0.63 1.44,0.63 0.446,0 0.81,0.195 0.81,0.433 0,0.239 0.39,0.578 0.867,0.755 0.854,0.316 0.853,0.328 -0.105,0.788 -2.798,1.346 -3.428,1.33 -6.363,-0.158 -1.124,-0.57 -2.135,-0.941 -2.25,-0.828 -0.554,0.555 3.629,2.561 7.3,3.5 3.508,0.9 5.09,1.06 10.631,1.075 4.181,0.011 8.012,-0.232 10.71,-0.68 6.186,-1.027 13.717,-2.81 14.76,-3.493 1.13,-0.74 1.566,-0.175 1.005,1.299 -0.52,1.367 -0.2,2.312 1.176,3.485 1.378,1.175 1.772,0.86 0.55,-0.442 l -0.924,-0.983 1.436,-3.76 c 3.726,-9.764 7.05,-24.996 8.236,-37.741 0.56,-6.01 0.552,-25.527 -0.013,-31.71 -0.505,-5.53 -1.963,-13.196 -3.552,-18.675 -3.66,-12.62 -10.455,-21.142003 -17.79,-22.315003 a 6.097,6.097 0 0 0 -1.071,-0.096 z m -5.685,1.186 c -0.225,0 -0.61,0.378 -0.858,0.84 -0.247,0.462 -0.3,0.84 -0.116,0.84 0.184,0 0.57,-0.378 0.859,-0.84 0.29,-0.466 0.342,-0.84 0.115,-0.84 z m 5.442,2.52 c 0.23,0 0.42,0.284 0.42,0.630003 0,0.347 -0.19,0.63 -0.42,0.63 -0.231,0 -0.42,-0.283 -0.42,-0.63 0,-0.346003 0.189,-0.630003 0.42,-0.630003 z m -12.26,3.360003 c -0.115,0 -0.552,0.378 -0.97,0.84 -0.418,0.462 -0.666,0.84 -0.55,0.84 0.115,0 0.552,-0.378 0.97,-0.84 0.418,-0.462 0.666,-0.84 0.55,-0.84 z m -7.295,10.641 a 0.387,0.387 0 0 1 0.235,0.07 c 0.231,0.142 0.42,0.342 0.42,0.444 0,0.101 -0.189,0.185 -0.42,0.185 -0.23,0 -0.42,-0.2 -0.42,-0.445 0,-0.153 0.074,-0.243 0.185,-0.254 z m -4.539,8.71 c -0.415,-0.015 -0.59,0.152 -0.45,0.513 0.114,0.299 -0.081,1.362 -0.434,2.362 -0.783,2.219 -0.783,2.134 -0.012,2.134 1.04,0 0.759,0.9 -2.256,7.2 a 2955.876,2955.876 0 0 0 -4.467,9.389 c 0.122,0.093 0.317,0.28 0.659,0.564 0.503,-1.084 1.05,-2.261 1.43,-3.083 6.126,-13.212 6.135,-13.23 6.554,-13.23 0.51,0 0.498,1.08 -0.022,2 -0.227,0.402 -2.422,5.077 -4.877,10.39 l -2.527,5.463 c 0.027,0.065 0.076,0.171 0.145,0.314 0.14,-0.085 0.29,-0.169 0.444,-0.22 5.149,-10.991 7.507,-16.148 8.721,-19.102 0.404,-0.982 1.004,-1.785 1.335,-1.785 1.1,0 0.287,-1 -1.597,-1.964 -1.18,-0.603 -2.112,-0.925 -2.646,-0.945 z m -6.554,24.03 -0.004,0.01 c 0.051,0.033 0.093,0.057 0.134,0.08 l 0.014,-0.008 c -0.015,-0.038 -0.109,-0.075 -0.144,-0.082 z m -1.363,2.948 -0.007,0.016 0.007,0.034 z m -2.93,6.347 -0.037,0.081 0.068,0.056 a 0.8,0.8 0 0 1 -0.031,-0.137 z m -4.867,5.367 a 5305.63,5305.63 0 0 1 -5.45,11.467 8698.259,8698.259 0 0 0 -10.639,22.365 c -1.175,2.483 -2.198,4.578 -2.274,4.654 -0.075,0.077 -0.504,-0.057 -0.953,-0.298 -0.637,-0.34 -1.009,-0.256 -1.7,0.388 -0.985,0.918 -1.896,3.746 -1.521,4.723 0.133,0.348 0.04,0.758 -0.206,0.91 -0.247,0.153 -0.449,0.466 -0.449,0.697 0,0.231 0.15,0.327 0.335,0.213 0.184,-0.114 0.595,-0.046 0.913,0.15 0.648,0.401 0.36,1.125 -4.483,11.267 -1.51,3.163 -3.192,6.696 -3.736,7.85 -0.543,1.156 -1.166,2.384 -1.383,2.73 -0.217,0.347 -0.785,1.602 -1.261,2.788 -0.477,1.187 -2.025,4.589 -3.44,7.56 -1.415,2.972 -2.995,6.348 -3.51,7.503 -1.21,2.709 -2.11,3.492 -3.216,2.801 -0.7,-0.436 -0.866,-0.374 -1.184,0.446 -1.372,3.532 -3.49,7.088 -5.236,8.794 -1.863,1.818 -2.098,1.93 -3.246,1.53 -1.108,-0.387 -1.633,-0.203 -5.043,1.765 l -3.806,2.197 -4.277,-0.733 c -4.221,-0.723 -4.32,-0.722 -7.547,0.164 -1.798,0.493 -4.195,1.366 -5.325,1.939 -1.731,0.877 -2.1,1.277 -2.336,2.533 -0.154,0.821 -0.21,1.55 -0.124,1.622 0.516,0.427 26.532,13.5 28.065,14.103 1.406,0.552 2.214,0.64 3.26,0.35 2.138,-0.59 6.177,-2.771 7.919,-4.277 1.381,-1.194 1.522,-1.489 1.19,-2.477 -0.35,-1.035 -4.958,-5.347 -5.716,-5.347 -0.639,0 -0.325,-0.81 0.717,-1.852 1.275,-1.275 1.303,-1.886 0.184,-4.079 l -0.865,-1.697 1.982,-2.171 c 1.09,-1.194 2.206,-2.36 2.48,-2.591 0.606,-0.51 2.198,-3.953 2.98,-6.446 0.54,-1.72 0.525,-1.84 -0.258,-2.045 -0.458,-0.12 -0.833,-0.266 -0.833,-0.326 0,-0.135 2.22,-4.98 4.78,-10.437 1.067,-2.273 1.94,-4.207 1.94,-4.297 0,-0.09 1.131,-2.542 2.514,-5.45 1.382,-2.908 4.334,-9.243 6.559,-14.078 2.225,-4.835 4.181,-8.791 4.346,-8.791 0.166,0 0.301,-0.24 0.301,-0.534 0,-0.294 1.336,-3.46 2.97,-7.035 8.631,-18.898 10.35,-22.634 12.08,-26.266 1.04,-2.18 1.89,-4.044 1.89,-4.145 0,-0.089 1.612,-3.626 3.622,-7.97 a 379.03,379.03 0 0 0 -1.01,-0.167 z m 2.169,0.479 a 9517.478,9517.478 0 0 1 -15.78,33.878 c -2.759,5.89 -5.742,12.127 -6.629,13.86 -1.415,2.764 -6.399,13.462 -14.284,30.66 -1.324,2.887 -2.531,5.722 -2.683,6.3 -0.368,1.406 3.077,-5.726 8.186,-16.946 a 920.414,920.414 0 0 1 8.72,-18.48 c 2.5,-5.117 4.837,-9.965 5.197,-10.774 1.059,-2.38 10.789,-23.495 14.612,-31.71 0.289,-0.62 1.826,-3.893 3.17,-6.758 a 0.932,0.932 0 0 1 -0.51,-0.03 z m 35.959,37.292 c 0.19,0 0.38,0.03 0.525,0.088 0.289,0.116 0.052,0.212 -0.525,0.212 -0.578,0 -0.813,-0.096 -0.525,-0.212 0.145,-0.058 0.335,-0.088 0.525,-0.088 z m -15.27,1.406 c 0.074,-0.003 0.143,-0.002 0.206,0 0.42,0.02 0.58,0.154 0.33,0.37 -0.458,0.395 -2.486,0.66 -2.486,0.327 0,-0.209 0.52,-0.48 1.155,-0.601 0.303,-0.059 0.573,-0.09 0.795,-0.096 z m 14.589,1.9 c 1.47,0 2.636,0.896 2.162,1.662 -0.437,0.707 -3.036,0.53 -3.326,-0.227 -0.461,-1.202 -0.272,-1.435 1.164,-1.435 z m -21.999,1.68 c 0.231,0 0.42,0.189 0.42,0.42 0,0.23 -0.189,0.42 -0.42,0.42 a 0.421,0.421 0 0 1 -0.42,-0.42 c 0,-0.231 0.19,-0.42 0.42,-0.42 z m -36.96,0.84 c 0.231,0 0.42,0.283 0.42,0.63 0,0.346 -0.189,0.63 -0.42,0.63 -0.23,0 -0.42,-0.284 -0.42,-0.63 0,-0.347 0.19,-0.63 0.42,-0.63 z m 27.401,3.856 c -0.19,0.027 -0.467,0.29 -0.941,0.764 -0.904,0.904 -1.098,1.68 -0.42,1.68 0.23,0 0.42,-0.2 0.42,-0.445 0,-0.245 0.198,-0.322 0.44,-0.173 0.301,0.186 0.285,0.46 -0.05,0.865 -0.392,0.472 -0.343,0.593 0.238,0.593 0.402,0 1.368,0.559 2.146,1.242 1.258,1.104 4.835,2.538 6.332,2.538 0.708,0 0.698,0.234 -0.049,1.15 a 110.74,110.74 0 0 0 -2.012,2.63 c -1.752,2.349 -4.286,3.435 -5.943,2.547 -1.514,-0.81 -2.124,-2.697 -2.139,-6.613 -0.007,-1.896 -0.134,-3.316 -0.282,-3.156 -0.575,0.625 -2.176,10.726 -2.243,14.152 a 0.95,0.95 0 0 1 -0.332,0.66 c -0.179,0.133 -0.007,0.983 0.383,1.89 0.39,0.907 0.663,2.27 0.607,3.026 -0.056,0.757 0.054,1.34 0.246,1.298 1.882,-0.42 4.228,4.282 3.63,7.275 -0.34,1.701 -0.835,1.456 -0.629,-0.311 0.256,-2.19 -1.002,-5.218 -2.16,-5.198 -0.502,0.01 -1.433,-0.11 -2.068,-0.266 -0.739,-0.18 -1.155,-0.113 -1.155,0.187 0,0.258 -0.274,0.47 -0.609,0.47 -0.335,0 -0.76,0.235 -0.945,0.524 -0.185,0.289 -1.848,1.25 -3.696,2.135 -9.576,4.589 -10.389,5.08 -13.489,8.16 -3.36,3.337 -4.353,5.373 -3.65,7.48 1.151,3.457 5.726,3.855 14.743,1.282 6.181,-1.763 6.574,-1.717 7.051,0.827 0.165,0.876 0.822,1.912 1.707,2.689 2.753,2.417 5.386,3.416 13.857,5.259 0.494,0.108 1.02,0.622 1.168,1.144 0.149,0.522 1.067,1.53 2.042,2.24 0.563,0.411 1.136,0.73 1.703,0.964 -1.277,-0.495 -0.293,-4.243 1.63,-5.59 1.014,-0.71 2.664,-0.873 3.02,-0.296 0.123,0.198 -0.208,0.277 -0.734,0.177 -0.657,-0.126 -1.395,0.226 -2.352,1.12 -1.242,1.16 -1.37,1.485 -1.17,2.973 0.124,0.92 0.084,1.67 -0.086,1.67 a 0.861,0.861 0 0 1 -0.288,-0.046 c 1.812,0.738 3.558,0.565 4.683,-0.56 0.57,-0.57 1.035,-1.327 1.035,-1.684 0,-0.357 0.19,-0.649 0.42,-0.649 0.55,0 0.54,-1.931 -0.015,-2.968 -0.239,-0.447 -0.28,-0.812 -0.092,-0.812 0.189,0 0.557,0.567 0.818,1.26 0.325,0.86 0.762,1.26 1.377,1.26 0.533,0 0.788,-0.184 0.624,-0.449 -0.152,-0.247 -0.551,-0.344 -0.887,-0.215 -0.361,0.139 -0.497,0.054 -0.334,-0.21 0.15,-0.244 0.538,-0.343 0.862,-0.218 0.323,0.124 0.587,0.043 0.587,-0.181 0,-0.224 -0.472,-0.407 -1.05,-0.407 -0.577,0 -1.05,-0.157 -1.05,-0.348 0,-0.19 0.567,-0.264 1.26,-0.162 0.992,0.146 1.336,0.466 1.612,1.502 0.202,0.757 0.604,1.286 0.945,1.244 2.509,-0.314 9.734,-2.01 13.193,-3.097 a 444.15,444.15 0 0 1 5.242,-1.623 c 0.791,-0.23 1.465,-0.004 2.803,0.94 2.613,1.841 5.244,1.974 7.705,0.389 3.236,-2.085 5.406,-6.021 5.442,-9.87 0.01,-1.097 0.207,-1.995 0.438,-1.995 0.812,0 0.408,-1.7 -0.698,-2.942 -0.614,-0.69 -2.143,-1.833 -3.396,-2.54 -1.779,-1.004 -2.21,-1.442 -1.973,-1.997 0.618,-1.441 1.417,-8.908 1.055,-9.848 -0.323,-0.838 -0.397,-0.861 -0.661,-0.208 -0.163,0.404 -0.567,0.735 -0.897,0.735 -0.47,0 -0.553,0.475 -0.386,2.205 l 0.214,2.205 -0.45,-1.89 c -0.249,-1.04 -0.507,-1.949 -0.574,-2.02 -0.068,-0.071 -0.818,0.16 -1.667,0.516 -0.85,0.354 -1.74,0.601 -1.98,0.549 -0.24,-0.053 -0.705,0.802 -1.034,1.9 -0.33,1.097 -0.77,1.995 -0.981,1.995 -0.772,0 -0.87,-0.847 -0.24,-2.067 0.883,-1.706 0.819,-2.553 -0.192,-2.553 -0.462,0 -0.84,0.209 -0.84,0.465 0,0.258 -0.306,0.347 -0.69,0.2 -0.934,-0.359 -2.67,0.843 -2.67,1.85 0,0.448 -0.378,1.017 -0.84,1.265 -0.965,0.516 -1.025,0.13 -0.57,-3.65 l 0.26,-2.18 4.88,-1.739 a 838.17,838.17 0 0 0 5.72,-2.054 c 0.462,-0.173 1.502,-0.3 2.31,-0.28 1.256,0.028 1.488,0.19 1.596,1.113 l 0.125,1.081 2.075,-1.027 2.074,-1.026 -0.1,-6.425 c -0.055,-3.533 -0.198,-6.522 -0.318,-6.642 -0.12,-0.12 -1.01,-0.112 -1.977,0.019 l -1.758,0.235 0.087,3.485 c 0.073,2.963 -0.045,3.66 -0.792,4.663 -1.02,1.368 -3.352,2.061 -3.72,1.105 -0.127,-0.334 -0.232,-2.55 -0.232,-4.925 v -4.319 l -1.89,-0.722 c -1.04,-0.397 -1.89,-0.906 -1.89,-1.132 0,-0.225 -0.221,-0.273 -0.491,-0.106 -0.33,0.204 -0.404,0.075 -0.224,-0.395 0.342,-0.89 -0.664,-0.938 -1.388,-0.067 -0.602,0.726 -5.698,2.324 -10.917,3.423 -4.571,0.963 -17.264,0.958 -22.78,-0.008 -5.966,-1.046 -9.616,-3.115 -10.203,-5.786 -0.176,-0.804 -0.273,-1.16 -0.516,-1.125 z m 44.84,1.604 c -0.023,-0.022 -0.193,0.105 -0.526,0.366 -0.404,0.317 -0.735,0.648 -0.735,0.735 0,0.346 0.345,0.124 0.894,-0.576 0.26,-0.333 0.388,-0.503 0.366,-0.525 z m -33.636,1.732 a 1.153,1.153 0 0 0 -0.464,0.08 c -0.335,0.135 -0.235,0.234 0.254,0.255 0.443,0.018 0.691,-0.081 0.552,-0.221 -0.07,-0.07 -0.196,-0.108 -0.342,-0.114 z m 2.1,0.42 a 1.153,1.153 0 0 0 -0.463,0.081 c -0.336,0.134 -0.236,0.234 0.253,0.254 0.443,0.018 0.69,-0.081 0.551,-0.22 -0.07,-0.07 -0.195,-0.11 -0.34,-0.115 z m -45.183,0.528 a 0.285,0.285 0 0 0 -0.147,0.053 c -0.228,0.14 -0.415,0.434 -0.415,0.652 0,0.604 0.301,0.47 0.58,-0.257 0.108,-0.28 0.095,-0.445 -0.018,-0.448 z m 44.28,0.515 c -0.722,0 -0.965,0.058 -0.532,0.168 1.274,0.321 6.378,0.545 6.055,0.265 -0.096,-0.083 -1.782,-0.248 -3.745,-0.367 a 31.279,31.279 0 0 0 -1.777,-0.066 z m -3.472,0.588 1.26,0.44 c 0.693,0.241 2.961,0.58 5.04,0.755 4.512,0.377 9.928,0.38 9.527,0.004 -0.158,-0.147 -3.216,-0.38 -6.797,-0.52 -3.58,-0.137 -7.077,-0.347 -7.77,-0.465 z m -41.55,0.837 c -0.116,0 -0.412,0.378 -0.66,0.84 -0.247,0.462 -0.355,0.84 -0.24,0.84 0.116,0 0.413,-0.378 0.66,-0.84 0.247,-0.462 0.355,-0.84 0.24,-0.84 z m 43.352,2.143 c 0.166,0 0.313,0.042 0.409,0.138 0.156,0.157 0.007,0.46 -0.333,0.675 -0.813,0.514 -1.248,0.504 -1.248,-0.03 0,-0.405 0.673,-0.782 1.172,-0.783 z m -44.61,0.491 a 0.555,0.555 0 0 0 -0.242,0.096 c -0.23,0.143 -0.416,0.579 -0.413,0.97 0.005,0.611 0.062,0.623 0.413,0.08 0.432,-0.668 0.513,-1.16 0.243,-1.146 z m 31.41,2.551 c 0.04,0.006 0.084,0.07 0.135,0.196 0.121,0.303 0.106,0.666 -0.033,0.805 -0.14,0.14 -0.24,-0.109 -0.221,-0.551 0.013,-0.306 0.056,-0.46 0.12,-0.45 z m -33.835,2.458 c -0.073,0.002 -0.197,0.12 -0.337,0.337 -0.224,0.346 -0.407,0.819 -0.407,1.05 0,0.23 0.183,0.137 0.407,-0.21 0.224,-0.346 0.407,-0.819 0.407,-1.05 0,-0.087 -0.026,-0.128 -0.07,-0.127 z m 89.263,2.203 c 0.128,0.006 0.16,0.09 0.067,0.239 -0.14,0.228 0.086,0.42 0.504,0.427 0.632,0.011 0.654,0.073 0.13,0.37 -1.494,0.845 -2.521,0.947 -2.521,0.252 0,-0.376 0.19,-0.567 0.42,-0.424 0.231,0.143 0.42,0.08 0.42,-0.14 0,-0.22 0.293,-0.513 0.652,-0.65 a 0.874,0.874 0 0 1 0.328,-0.074 z m -1.759,3.224 c -0.037,-0.005 0.005,0.154 0.104,0.475 0.126,0.404 0.035,0.735 -0.203,0.735 -0.237,0 -0.304,0.205 -0.15,0.457 0.187,0.301 0.424,0.315 0.7,0.04 0.274,-0.275 0.247,-0.68 -0.08,-1.192 -0.216,-0.338 -0.333,-0.509 -0.37,-0.515 z m -2.026,1.022 c -0.168,-0.015 -0.185,0.188 0.058,0.58 0.152,0.246 0.462,0.448 0.688,0.448 0.227,0 0.169,-0.264 -0.13,-0.588 -0.263,-0.286 -0.486,-0.429 -0.616,-0.44 z m -1.431,0.33 a 1.536,1.536 0 0 0 -0.642,0.196 c -0.652,0.365 -0.602,0.415 0.359,0.358 0.616,-0.037 0.956,-0.227 0.758,-0.424 -0.099,-0.1 -0.273,-0.142 -0.475,-0.13 z m -87.407,0.362 c -0.073,0.001 -0.197,0.12 -0.337,0.336 -0.224,0.346 -0.407,0.819 -0.407,1.05 0,0.231 0.183,0.136 0.407,-0.21 0.224,-0.347 0.407,-0.819 0.407,-1.05 0,-0.086 -0.026,-0.128 -0.07,-0.126 z m 88.728,0.756 c -0.476,0 -0.865,0.189 -0.865,0.42 0,0.23 0.272,0.42 0.605,0.42 0.333,0 0.723,-0.19 0.865,-0.42 0.143,-0.231 -0.13,-0.42 -0.605,-0.42 z m -4.648,0.576 c -0.172,0.005 -0.449,0.044 -0.837,0.115 -0.808,0.148 -1.549,0.337 -1.645,0.42 -0.417,0.355 1.916,0.096 2.485,-0.277 0.277,-0.181 0.286,-0.266 -0.003,-0.258 z m 5.278,0.684 c -0.36,0 -0.655,0.19 -0.655,0.42 0,0.231 0.178,0.42 0.395,0.42 0.218,0 0.512,-0.189 0.655,-0.42 0.143,-0.23 -0.035,-0.42 -0.395,-0.42 z m -51.701,0.179 c 0.168,0.01 0.418,0.176 0.638,0.44 0.605,0.73 0.49,0.8 -0.4,0.237 -0.34,-0.215 -0.508,-0.5 -0.375,-0.633 0.034,-0.034 0.08,-0.048 0.137,-0.044 z m 43.219,0.386 c -0.064,-0.01 -0.107,0.144 -0.12,0.45 -0.018,0.443 0.081,0.69 0.22,0.551 0.14,-0.14 0.155,-0.502 0.034,-0.805 -0.05,-0.126 -0.096,-0.19 -0.134,-0.196 z m 3.12,0.11 c -0.466,0.008 -1.196,0.282 -1.436,0.671 -0.14,0.227 0.17,0.343 0.709,0.264 0.527,-0.077 1.031,-0.361 1.12,-0.632 0.072,-0.219 -0.113,-0.309 -0.393,-0.304 z m -13.281,0.818 c 0.182,-0.02 0.348,0.869 0.348,2.682 0,1.842 -0.171,2.965 -0.453,2.965 -0.285,0 -0.351,0.467 -0.177,1.26 0.152,0.693 0.188,1.26 0.08,1.26 -0.304,0 -0.762,-2.096 -0.538,-2.459 0.11,-0.176 0.24,-1.499 0.293,-2.939 0.065,-1.82 0.264,-2.749 0.447,-2.769 z m -2.051,0.337 c 0.072,-0.004 0.115,-0.003 0.12,0.004 0.016,0.03 -0.215,1.095 -0.513,2.366 -0.495,2.106 -0.53,2.152 -0.385,0.525 0.133,-1.512 0.039,-1.785 -0.618,-1.785 -1.376,0 -1.28,-0.74 0.125,-0.953 a 16.848,16.848 0 0 1 1.27,-0.157 z m 11.898,1.53 c -0.088,0 -0.26,0.378 -0.38,0.84 -0.121,0.462 -0.049,0.84 0.16,0.84 0.21,0 0.381,-0.378 0.381,-0.84 0,-0.462 -0.072,-0.84 -0.16,-0.84 z m -1.226,3.095 a 0.04,0.04 0 0 1 0.026,0.003 c 0.038,0.019 0.06,0.106 0.065,0.262 0.013,0.346 -0.16,0.913 -0.384,1.26 -0.496,0.768 -0.496,0.104 0,-1.05 0.13,-0.303 0.228,-0.462 0.293,-0.475 z m -45.467,4.639 c 0.117,0 0.232,0.002 0.346,0.007 1.101,0.047 2.226,0.309 2.5,0.582 0.323,0.324 0.34,0.497 0.046,0.497 -0.247,0 -0.583,1.18 -0.746,2.62 -0.163,1.442 -0.503,2.87 -0.755,3.175 -0.253,0.304 -0.286,0.501 -0.073,0.44 0.412,-0.121 3.956,2.95 3.956,3.426 0,0.157 -0.481,0.503 -1.07,0.772 -1.335,0.608 -1.188,0.624 -2.262,-0.248 -0.498,-0.404 -0.978,-1.302 -1.068,-1.995 a 85.832,85.832 0 0 0 -0.198,-1.47 c -0.019,-0.115 -0.194,0.04 -0.388,0.347 -0.241,0.38 -0.435,0.054 -0.61,-1.023 -0.148,-0.914 -0.064,-1.814 0.201,-2.133 0.63,-0.757 -0.04,-0.709 -3.635,0.265 a 25288.9,25288.9 0 0 0 -6.81,1.845 c -2.127,0.578 -4.065,1.171 -4.304,1.32 -0.744,0.459 -0.478,-0.706 0.3,-1.313 6.028,-4.71 10.946,-7.11 14.57,-7.114 z m 31.28,3.657 c 0.145,0.007 0.27,0.045 0.34,0.115 0.14,0.14 -0.108,0.24 -0.551,0.22 -0.49,-0.02 -0.589,-0.119 -0.254,-0.253 0.152,-0.06 0.318,-0.088 0.464,-0.082 z m 29.224,0.694 1.05,0.615 c 0.577,0.339 1.298,1.118 1.6,1.732 0.303,0.614 0.476,1.824 0.386,2.687 l -0.165,1.57 -0.07,-1.602 c -0.08,-1.82 -0.639,-3.044 -1.918,-4.202 z m -26.286,1.84 c 0.33,0.012 0.456,0.162 0.456,0.476 0,0.514 -0.84,0.686 -4.305,0.883 -9.288,0.528 -11.655,0.534 -11.655,0.034 0,-0.337 2.096,-0.574 6.825,-0.771 3.754,-0.157 7.345,-0.398 7.98,-0.535 0.216,-0.047 0.396,-0.076 0.545,-0.085 0.055,-0.004 0.107,-0.003 0.154,-0.003 z m 28.91,5.026 c 0.04,0.012 0.06,0.16 0.073,0.45 0.018,0.392 -0.457,1.243 -1.055,1.89 l -1.089,1.179 0.819,-1.26 c 0.45,-0.693 0.925,-1.544 1.055,-1.89 0.096,-0.257 0.157,-0.38 0.197,-0.369 z m -3.453,2.935 c 0.253,-0.016 0.474,0.169 0.848,0.543 0.505,0.505 0.443,0.684 -0.435,1.26 -1.237,0.81 -1.255,0.811 -1.827,0.121 -0.341,-0.41 -0.247,-0.73 0.373,-1.26 0.503,-0.43 0.788,-0.648 1.04,-0.664 z m -0.22,0.794 c -0.232,0 -0.42,0.189 -0.42,0.42 0,0.23 0.188,0.42 0.42,0.42 a 0.421,0.421 0 0 0 0,-0.84 z m -127.373,5.532 c 0.338,0.006 0.7,0.047 1.134,0.112 2.227,0.334 2.285,0.62 0.178,0.88 -1.011,0.126 -1.232,0.061 -0.78,-0.228 1.169,-0.748 -1.35,-0.452 -3.163,0.372 -0.932,0.423 -2.007,1.081 -2.389,1.464 -0.415,0.415 -0.798,0.527 -0.952,0.278 -0.142,-0.23 0.95,-1.013 2.427,-1.741 1.751,-0.864 2.532,-1.155 3.545,-1.137 z m 3.869,0.73 c 0.106,-0.009 -0.273,0.38 -1.185,1.241 -1.01,0.955 -2.04,1.737 -2.285,1.737 -0.246,0 -0.099,-0.255 0.327,-0.566 0.488,-0.357 0.649,-0.77 0.435,-1.115 -0.224,-0.364 -0.174,-0.448 0.15,-0.248 0.267,0.166 1.1,-0.113 1.85,-0.621 0.404,-0.275 0.644,-0.423 0.708,-0.428 z m -6.487,1.31 c 0.231,0 0.136,0.184 -0.21,0.408 -0.347,0.224 -0.82,0.407 -1.05,0.407 -0.231,0 -0.136,-0.183 0.21,-0.407 0.347,-0.224 0.82,-0.407 1.05,-0.407 z m -2.064,1.323 c 0.193,-0.007 0.776,0.215 1.407,0.541 0.722,0.373 1.524,0.547 1.784,0.386 0.26,-0.16 0.359,-0.107 0.22,0.119 -0.14,0.225 1.726,1.321 4.147,2.435 2.42,1.113 4.509,2.199 4.64,2.412 0.132,0.213 0.127,0.501 -0.012,0.64 -0.139,0.138 -0.252,0.031 -0.252,-0.238 0,-0.27 -0.31,-0.49 -0.69,-0.49 -0.749,0 -11.556,-5.535 -11.302,-5.788 0.01,-0.01 0.03,-0.016 0.058,-0.017 z m 20.544,0.357 2.2,1.286 2.199,1.285 -0.664,1.284 c -0.544,1.052 -0.563,1.347 -0.107,1.63 0.395,0.243 0.07,0.547 -1.115,1.04 -0.92,0.383 -2.146,0.932 -2.723,1.22 -0.903,0.452 -1.345,0.388 -3.15,-0.454 -1.155,-0.539 -2.025,-1.126 -1.933,-1.306 0.091,-0.18 0.71,-0.658 1.375,-1.062 0.665,-0.405 1.381,-1.16 1.591,-1.68 0.21,-0.52 0.82,-1.462 1.355,-2.094 z m -15.725,0.408 c 0.245,0 0.328,0.189 0.185,0.42 -0.143,0.23 -0.343,0.42 -0.445,0.42 -0.102,0 -0.185,-0.19 -0.185,-0.42 0,-0.231 0.2,-0.42 0.445,-0.42 z m 12.82,2.228 c 0.136,0.005 0.043,0.156 -0.245,0.503 -0.297,0.357 -0.63,0.559 -0.74,0.448 -0.11,-0.11 -0.884,0.263 -1.718,0.83 -1.419,0.964 -2.162,1.26 -2.162,0.86 0,-0.22 3.332,-2.131 4.364,-2.503 0.255,-0.091 0.42,-0.14 0.501,-0.138 z m -4.558,3.251 c 0.256,0 0.663,0.2 1.188,0.598 0.817,0.618 0.613,0.712 -0.76,0.353 -0.404,-0.105 -0.735,-0.367 -0.735,-0.58 0,-0.247 0.108,-0.37 0.307,-0.37 z m 14.11,0.548 c 0.467,0.002 0.578,0.087 0.283,0.244 -0.346,0.184 -1.386,0.448 -2.31,0.583 -1.362,0.202 -1.526,0.161 -0.866,-0.217 0.447,-0.257 1.486,-0.52 2.31,-0.584 0.233,-0.018 0.428,-0.026 0.583,-0.026 z m -11.834,0.816 c 0.031,-0.02 0.282,0.095 0.777,0.33 0.578,0.276 1.129,0.57 1.225,0.654 0.576,0.504 -0.79,0.036 -1.46,-0.5 -0.384,-0.308 -0.573,-0.464 -0.542,-0.484 z m 7.287,0.31 c 0.23,0 0.137,0.183 -0.21,0.407 -0.346,0.224 -0.819,0.407 -1.05,0.407 -0.231,0 -0.136,-0.183 0.21,-0.407 0.347,-0.224 0.819,-0.407 1.05,-0.407 z"
         inkscape:connector-curvature="0"
         style="fill:#0dbff3;fill-opacity:1" />
    </g>
    <text
       xml:space="preserve"
       style="font-size:25.39999962px;line-height:1.25;font-family:Ebrima;-inkscape-font-specification:Ebrima;letter-spacing:0px;word-spacing:0px;fill:#09a0e7;fill-opacity:1;stroke-width:0.26458332"
       x="81.228737"
       y="158.02637"
       id="text839-8"><tspan
         sodipodi:role="line"
         id="tspan837-8"
         x="81.228737"
         y="158.02637"
         style="font-style:normal;font-variant:normal;font-weight:normal;font-stretch:normal;font-size:42.33333333px;line-height:1;font-family:Rubik;-inkscape-font-specification:Rubik;fill:#09a0e7;fill-opacity:1;stroke-width:0.26458332">Містер</tspan></text>
    <text
       xml:space="preserve"
       style="font-size:25.39999962px;line-height:1.25;font-family:Ebrima;-inkscape-font-specification:Ebrima;letter-spacing:0px;word-spacing:0px;fill:#0dbff3;fill-opacity:1;stroke-width:0.26458332"
       x="115.09345"
       y="196.0475"
       id="text839-1"><tspan
         sodipodi:role="line"
         id="tspan837-3"
         x="115.09345"
         y="196.0475"
         style="font-style:normal;font-variant:normal;font-weight:normal;font-stretch:normal;font-size:29.10416603px;line-height:1;font-family:Rubik;-inkscape-font-specification:Rubik;fill:#0dbff3;fill-opacity:1;stroke-width:0.26458332">Чистота</tspan></text>
  </g>
</svg>
