<svg xmlns="http://www.w3.org/2000/svg" width="586.609" height="1019.218" viewBox="0 0 155.207 269.668"><path d="M38.605 0c-2.357.015-4.834.33-6.006.938-.944.489-3.022 2.04-4.619 3.447-2.698 2.377-2.902 2.763-2.902 5.467 0 1.6.427 3.767.95 4.814.522 1.047 1.167 3.22 1.432 4.83.686 4.158 2.283 7.565 3.72 7.941.868.227 1.231.832 1.231 2.048 0 .95.275 1.896.611 2.104.336.207.611.893.611 1.522 0 1.316 4.119 4.844 7.479 6.408l2.284 1.063-1.963 1.323c-1.08.727-2.382 2.088-2.895 3.024-.853 1.555-.84 1.77.137 2.498.615.458 1.07 1.597 1.07 2.68 0 3.489-1.014 2.544-2.684-2.502-1.61-4.861-5.174-12.412-5.232-11.083-.016.36-1.263 1.272-2.77 2.025-1.508.753-2.952 1.711-3.209 2.13-.512.835-3.73 2.27-5.846 2.606-.739.118-2.197.343-3.24.501-1.043.158-3.226.781-4.85 1.385-2.897 1.075-2.985 1.186-4.536 5.675-.87 2.518-2.194 5.738-2.943 7.156-1.348 2.551-2.001 8.414-1.1 9.873.229.37.122 1.707-.238 2.972C2.484 73 1.332 82.243.973 87.877c-.088 1.38-.318 2.765-.51 3.076-.892 1.443-.417 17.497.757 25.58.293 2.017.556 6.854.584 10.75.05 6.895.091 7.1 1.545 7.762 1.345.613 1.436.881.917 2.692-.927 3.232-.675 5.665.819 7.886.775 1.154 2.029 2.168 2.82 2.281.784.113 2.286.73 3.34 1.373 2.542 1.55 4.78 1.5 5.798-.131.679-1.088.678-1.39-.006-1.824-.451-.286-1.162-.525-1.58-.53-.416-.005-1.101-.559-1.521-1.231-.42-.672-1.105-1.222-1.522-1.222-.416 0-.923-.756-1.125-1.68-.202-.925-.876-3.056-1.498-4.737-.621-1.68-1.305-3.674-1.518-4.43-.435-1.539-1.03-1.685-2.862-.705-.987.529-1.199.496-.999-.153.14-.453 1.447-1.432 2.906-2.176 2.649-1.352 2.652-1.352 4.188-.144.845.665 1.692 1.052 1.883.861.191-.19.018-.551-.385-.8-.46-.285-.605-1.24-.387-2.564.19-1.161.33-2.661.311-3.334-.135-4.802.017-24.158.223-28.31.138-2.8.537-5.962.886-7.028.349-1.067.844-3.842 1.101-6.167.257-2.325.779-4.331 1.159-4.458.417-.138 1.097 1.539 1.715 4.229.562 2.451 1.35 5.694 1.752 7.207 1.316 4.957.785 13.538-1.372 22.18-1.938 7.765-1.947 7.872-1.254 14.973.597 6.13 1.383 10.022 2.86 14.18.18.504.436 3.904.57 7.554.179 4.868.633 7.799 1.704 11 .804 2.4 1.628 6.425 1.833 8.946.204 2.521 1.034 7.334 1.844 10.695 1.437 5.967 2.22 13.479 3.408 32.694.322 5.21.855 10.583 1.185 11.941.33 1.358.889 5.62 1.242 9.473.353 3.851.939 8.475 1.302 10.275.587 2.908 4.054 10.554 5.398 11.904.28.28.367 2.759.196 5.508l-.312 4.998 1.757.722c2.239.92 11.504.609 12.753-.428 1.179-.978 1.19-4.713.023-7.507-.53-1.267-.984-4.752-1.105-8.477-.143-4.408-.498-6.789-1.168-7.853-.552-.876-1.129-3.665-1.352-6.537-.213-2.755-1.051-7.623-1.862-10.818-1.452-5.725-1.47-6.147-1.264-29.214.236-26.297.838-41.915 1.637-42.409.295-.182 1.4 1.512 2.454 3.765 1.786 3.817 1.946 4.725 2.352 13.335.24 5.081.774 9.957 1.187 10.834.412.878 1.707 2.053 2.877 2.61l2.126 1.014-.411 4.113-.584 5.84c-.095.95-.48 2.037-.858 2.414-.377.377-.686 2.155-.686 3.95 0 1.796-.404 5.247-.898 7.67-1.065 5.217-2.15 18.781-1.746 21.821.435 3.276.824 12.537.775 18.435-.057 6.812.85 9.777 3.808 12.449 1.93 1.744 2.82 2.117 5.053 2.117 2.334 0 3.006-.314 4.848-2.268 2.045-2.167 2.128-2.427 1.871-5.908-.304-4.128-1.963-10.154-3.052-11.086-.4-.342-.92-2.02-1.155-3.73-.438-3.185.448-5.12 2.344-5.12.998 0 2.82-3.868 2.816-5.979-.002-.913.388-2.897.866-4.41.478-1.512 1.194-4.4 1.591-6.416.397-2.017.974-4.904 1.28-6.417.308-1.512.798-4.537 1.09-6.722.744-5.548 1.886-11.407 2.882-14.775.982-3.322.693-4.56-1.517-6.48-.883-.768-1.16-1.233-.614-1.035.714.26 1.074-.074 1.288-1.194.36-1.88-.517-17.196-1.031-18.03-.2-.324-.359-7.685-.352-16.357.013-14.31-.129-16.53-1.53-24.018-2.273-12.153-2.567-13.192-5.354-18.908-2.522-5.17-2.551-5.308-2.552-11.953-.001-5.76.98-15.245 1.856-17.923.178-.545.767-.215 1.794 1.005.84 1 1.528 2.074 1.528 2.388 0 .314.825 1.815 1.833 3.337 1.008 1.521 2.108 4.25 2.445 6.063.392 2.115 1.05 3.597 1.834 4.135.856.587 1.222 1.525 1.222 3.132 0 1.262.65 3.772 1.446 5.579 1.479 3.36 2.1 7.595 2.342 15.965.075 2.604.354 4.736.619 4.736s.482-.269.482-.596c0-1.885 7.203-3.226 9.817-1.827 2.12 1.134 1.25 1.73-2.03 1.392-2.21-.228-3.942-.027-5.545.643-2.008.839-2.271 1.167-1.89 2.361.243.763.413 2.35.377 3.527-.056 1.887.03 2.014.733 1.079.439-.583.976-.881 1.195-.662.219.219.398.077.398-.315 0-.393-.25-.714-.554-.714-.8 0-.047-2.43.778-2.511 2.197-.214 5.985-.039 6.316.292.732.732 1.365.384 1.006-.553-.199-.517.14-1.492.75-2.167 1.034-1.142 1.056-1.64.32-7.158-.436-3.262-.856-7.168-.934-8.68-.193-3.732-1.525-12.022-2.229-13.874-.315-.829-.435-1.73-.266-2.003.168-.273-.103-1.281-.603-2.24-.5-.96-.914-2.157-.92-2.661-.004-.504-.97-2.124-2.142-3.6-1.173-1.476-2.167-2.92-2.21-3.208-.175-1.204-.29-1.577-1.396-4.497-.637-1.681-1.528-3.599-1.981-4.262-.453-.663-.824-1.815-.824-2.56 0-.746-.275-1.526-.611-1.734-.336-.208-.61-1.212-.61-2.232 0-1.02-1.101-4.036-2.446-6.702-1.344-2.667-2.444-5.405-2.444-6.085 0-1.453-1.4-4.333-2.583-5.315-.457-.379-3.156-1.228-5.999-1.886-10.215-2.366-14.07-3.575-14.867-4.665-.69-.945-.87.087-1.234 7.109-.235 4.517-.826 10.128-1.316 12.467-.49 2.339-.89 4.81-.89 5.492 0 .682-.553 1.713-1.23 2.292-1.777 1.522-2.264 1.293-.727-.344 1.06-1.128 1.238-1.85.929-3.757-.305-1.877-.525-2.186-1.07-1.507-.378.47-1.491 1.542-2.474 2.383-1.23 1.052-.988.597.781-1.461 1.695-1.972 2.57-3.571 2.57-4.7 0-2.156-.896-2.753-1.945-1.298-.444.614-1.219 1.359-1.723 1.655-.807.474-.81.397-.029-.648a51.797 51.797 0 012.018-2.483c.793-.908 1.01-1.775.727-2.902-.362-1.44-1.494-2.307-1.494-1.143 0 .255-.586.83-1.303 1.278l-1.304.814 1.304-1.83c.717-1.008 1.308-2.202 1.313-2.654.005-.453.25-1.203.544-1.668.449-.708.766-.683 1.96.153 1.966 1.377 2.548 1.248 1.71-.377-1.24-2.406-3.177-4.152-4.233-3.817-.67.213-1.248-.205-1.722-1.245-.87-1.908-.88-2.119-.102-2.119.337 0 .611.413.611.917s.275.917.612.917c.336 0 .61-1.087.61-2.415 0-1.327.354-2.633.786-2.902 1.23-.764 3.492-3.922 3.492-4.873 0-.626-.35-.53-1.299.353-.882.822-2.054 1.18-3.651 1.116a7.89 7.89 0 01-.795-.07c-.105.293-.48.484-1.072.3a3.095 3.095 0 00-.515-.108 6.681 6.681 0 01-1.018.215.623.623 0 01-.386.043c-.11.01-.222.023-.331.031a5.195 5.195 0 00-.712-.034c-.424-.02-.725-.344-1.089-.505l.01.006a.708.708 0 01-.128-.053c.04.013.08.03.118.047-.559-.31-.65-.433-.515-.256.119.072.244.133.355.216.016.012-.041.008-.06.004a5.71 5.71 0 01-.404-.106c-.385-.115-.49-.255-.552-.502a3.809 3.809 0 01-.34-.242 15.71 15.71 0 01-.193-.105c-.16-.02-.297-.043-.303-.071l-.006-.032c-.174-.051-.208-.108-.066-.373-.016-.099-.019-.167-.027-.248-.4.012-.228-.26.021-.567a.224.224 0 01.082-.102c.335-.399.698-.803.03-.675-.059.011-.118.025-.177.034-.022.003.042-.009.062-.017.085-.034.166-.077.25-.11.235-.087.469-.164.677-.313.098-.034.2-.054.295-.096.387-.173.764-.402 1.204-.35.192 0 .4-.015.586.038a1.94 1.94 0 01.331-.16c.115-.048.28.004.4-.007l.175.024c.238-.274.547-.299.862-.293.11.002.22.006.328.005h2.316c.16 0 .3.02.422.055.93-.2 2.184-.195 2.87.023 1.169.37 1.224.304.485-.587-.534-.643-1.853-1.03-3.662-1.076-1.434-.036-2.19-.175-1.827-.32l-.014-.001c-.06-.003-.124.025-.178.002-.072-.033-.149-.063-.224-.095-.03.005-.06.009-.089.015-.289.016-.577-.005-.865-.017h-.195c-.032-.006-.064-.005-.097-.006-.051 0-.102-.002-.154 0-.145.007-.292.024-.431.002-.125-.031-.132-.033-.187-.048-.116.03-.244.051-.397.049-.065-.001-.13-.005-.196-.007a2.73 2.73 0 00-.344.087c-.135.042-.252.132-.386.177-.081.028-.166.044-.25.066a1.974 1.974 0 01-.773.098c-.234.284-.21.249-.48.42-.271.189-.672.626-1.038.567-.207-.034-.383-.173-.575-.259-.195-.087-.267-.157-.258-.216a3.789 3.789 0 01-1.282-.642c-.088-.067-.16-.15-.242-.223-.295-.293-.495-.464-.813-.739-.001 0-.219-.178-.23-.193-.062-.085-.099-.187-.16-.273-.019-.024.05.105.026.087-.076-.058-.11-.154-.167-.231-.052-.201-.178-.27-.276-.439-.093-.159-.12-.255-.18-.422.001.014.01.054.001.042-.086-.135-.141-.292-.227-.429-.232-.373.146.302-.162-.264a1.088 1.088 0 01-.158-.14c-.253-.276-.539-.522-.795-.794-.06-.04-.116-.086-.174-.13l.04.04-.051-.05.011.01-.102-.105c-.554-.1-.26.039-.623-.352-.014-.015-.068-.02-.064 0 .01.062.319.13-.15-.023-.26-.168-.163-.1-.332-.31-.013-.01-.026-.02-.037-.032-.003-.003 0-.015.003-.012.026.03.016.021.034.044l.055.046c.307.262.29.04.232-.253-.025-.025-.048-.046-.077-.078-.029-.033-.077-.062-.078-.106-.004-.214.042-.426.063-.64.026-.01.023-.01.045-.02-.028-.095-.004-.16.127-.158.039 0 .086.005.143.017l.024.006a.228.228 0 01.144-.03l.2.019c.113.01.184.042.226.087.08.007.16.01.235.033.201.06.136.076.238.153.143.108.309.189.43.324.03.02.053.048.084.064.103.054.226.077.313.153a.831.831 0 01.125.132.54.54 0 01.131.3c.034.037.115.06.096.103-.003.007-.014.006-.022.007.07.02.14.039.206.067.076.032.243.195.287.235l.007.013.036.016c.022 0 .043-.003.064 0 .264.041.291.098.493.248.02.024.068.062.096.09.317.186.493.56.723.829.094.02.168.06.235.108.23-.01.629.174.695.199l.202.13c.05-.001.1-.004.15-.003l.154.005c.018-.021.044-.022.078.002.072.003.067.01.03.023l.01.007.012.016c.023-.006.05-.012.052.003v.003c.014-.002.028-.001.042-.004.102-.019.202-.044.303-.066.539-.121.295-.078.723-.141a.827.827 0 00.124-.034c.085-.121.014.075.677-.228.085-.039-.19.054-.278.022-.063-.023.13-.032.193-.053.161-.054.32-.115.48-.172l.578-.192c.019-.006.035-.008.053-.013.084-.287.308-.447.555-.447.124 0 .253.041.372.125a.857.857 0 01.203.062c.675.285.366.029.627 1.03l-.056.075c.018.028.05.07.07.099.04.016.08.048.125.092.07-.054.137.137.212.194.124.097.255.186.384.277h2.435c.127 0 .237.015.34.038.13-.204.303-.4.511-.56.856-.656.816-.747-.33-.764-1.513-.023-2.499-1.04-2.683-2.77-.234-2.205-.009-2.255 1.593-.352 5.267 6.26 12.402-3.998 8.046-11.568-.774-1.344-2.44-2.97-3.82-3.726-1.346-.737-2.918-1.745-3.493-2.24-.694-.596-2.93-.883-5.288-.868zm-2.697 22.185a.735.735 0 01-.045.005.356.356 0 01.052.084h.014c-.006-.027-.017-.065-.021-.089zm-.075-.029a.23.23 0 00-.03-.023l-.078-.002c-.014.017-.021.053-.028.091.059-.032.105-.055.136-.066zm-.136.066c-.03.017-.057.031-.085.056l.01.012.07-.01c.003-.018.003-.041.005-.058zm9.242-17.93l2.291 2.574c1.26 1.416 2.292 3.21 2.292 3.985 0 1.266-.216 1.376-2.095 1.071-1.546-.25-2.572 0-3.914.955-2.14 1.524-3.454 1.757-4.977.494-.165.13-.416.22-.755.22h-.735c-.071 0-.506.022-.792-.02-.18.107-.439.152-.772.08-.022-.006-.162-.018-.327-.034-.041.009-.077.021-.121.027-.098.267-.414.493-.957.49h-.157c-.198.255-.087.12-.544.663a1.314 1.314 0 01-.47.374c-.064.228-.274.439-.642.525-.306.302-.576.497-1.063-.142-.184-.149-.277-.394-.264-.761.047-.149.044-.322.14-.445.013-.018.032-.031.049-.047v-.033c0-.136.154-.222.232-.333.315-.27.828-.716 1.125-.934.107-.079.207-.182.311-.276l.004-.034c-.132-.162-.223-.408-.228-.746l-.002-.251c-.002-.275 0-.55 0-.825a1.903 1.903 0 01-.065-.587c.01-.154.064-.298.081-.45.001.003 0 .007.002.008.134.034.273.054.412.071.069-.258.252-.49.468-.713l.03-.056c.015-.033.049-.048.085-.062.152-.148.312-.293.454-.44.288-.296.572-.413.8-.404l.013.002c.239-.33.495-.49.715-.516h.021c.614-1.085 2.597-1.848 6.299-2.715zm-13.41 9.714c-.058.01-.236.09-.247.162v.018c.087-.05.178-.097.252-.162.019-.016.013-.02-.006-.018zm-.831 6.615c.015.027.045.043.072.056l-.038-.039c-.01-.008-.04-.028-.034-.017zm9.65 1.213l.002.01c.023.06.044.105.066.15 0-.006.004-.012.005-.018.007-.043-.066-.148-.073-.142zm-1.138.737c-.002 0-.005 0-.007.002l.022.027-.015-.03zm-1.373 2.49l-.015.01.011.008.028-.01-.024-.007zm2.335 2.064c-.048 0-.148 0-.14.047.111-.01.09-.011.14-.047zm.794.152c-.008.015-.012.027-.018.04l.015.003.003-.043zm5.465 14.395c.355 0 .647.275.647.611 0 .336-.122.611-.27.611-.148 0-.44-.275-.647-.611-.208-.336-.086-.61.27-.61zm-2.636 1.853c.378-.01 1.03.393 1.449.897.966 1.164.572 1.172-.952.02-.653-.494-.876-.907-.497-.917zm24.747 17.978c1.587-.013 1.362 1.048-.732 1.633-2.28.637-4.844.603-4.844-.064 0-.588.722-.813 4.786-1.493.3-.05.564-.074.79-.076zm21.925 59.632c.504 0 1.329.267 1.833.593.815.526.815.592 0 .592-.504 0-1.33-.266-1.833-.592-.815-.527-.815-.593 0-.593zm5.519 4.26c-.326 0-.434.412-.24.916.193.504.46.917.592.917.132 0 .24-.413.24-.917s-.267-.917-.592-.917zm.781 3.112c-.09.007-.031.243.156.733.229.603.57.942.759.754.188-.188 0-.682-.417-1.096-.264-.262-.427-.396-.498-.39zm-11.69 1.47l-.051 2.75c-.029 1.513.359 3.538.861 4.501.502.963.913 2.534.913 3.492 0 1.117.439 1.977 1.222 2.397.678.362 1.222 1.279 1.222 2.058 0 .772.184 1.588.408 1.812.63.63.653.557.578-1.884-.042-1.407-.482-2.6-1.139-3.09-1.184-.885-1.435-3.786-.415-4.807.466-.465.214-1.002-.873-1.857-.84-.661-1.798-2.14-2.127-3.286zm12.98 1.239c-.039.008-.07.04-.09.102-.135.401-.641.578-1.124.393-.482-.185-.876-.032-.876.34s-.38.677-.842.677c-.463 0-1.19.419-1.615.93-.425.513-.908.798-1.072.634-.164-.164-.785-.04-1.379.278-.911.488-.993.96-.528 3.029.302 1.347.618 4.228.7 6.4.142 3.694.252 3.968 1.68 4.193 3.07.485 3.382.383 4.583-1.494 3.17-4.955 3.913-6.783 3.533-8.693-.485-2.443-2.361-6.67-2.929-6.788a.116.116 0 00-.041-.001zm-.095 1.631c.085.026.232.366.501 1.039.598 1.496.474 2.22-.256 1.49-.224-.225-.39-.98-.368-1.681.018-.585.039-.874.123-.848zm-90.931 4.03c.041.012.088.107.137.293.155.594.144 1.42-.023 1.833-.167.414-.294-.072-.282-1.08.009-.694.076-1.07.168-1.045zm5.722 1.35c-1.319 0-1.368.232-.38 1.814.84 1.346 1.282 1.157 1.411-.604.06-.798-.292-1.21-1.03-1.21zm27.15 121.095c.098.022.26.257.527.715.357.614.532 1.232.389 1.375-.433.433-1.076-.493-1.056-1.522.008-.397.04-.59.14-.568z" fill="#4d4d4d"></path><path d="M127.06 81.845c-.463 0-.841.171-.841.38 0 .21.378.282.84.162.462-.121.84-.293.84-.381 0-.089-.378-.161-.84-.161zm2.342.074c-.812.022-.848.4-.138 1.159.43.46.358.52-.4.338-.508-.122-.991-.022-1.073.223-.082.245-.76.446-1.507.446-.747 0-1.156.124-.91.277.575.355-3.562 4.2-4.53 4.21-.615.005-.627.062-.085.413.439.283.47.425.105.466-.288.032-.667.083-.84.113-.59.1-4.725 4.376-4.725 4.884 0 .28-.277.4-.616.27-.34-.13-.747-.027-.905.23-.174.28-.097.349.192.17.306-.19.392-.07.24.329-.133.344-.481.532-.776.42-.31-.12-.758.332-1.064 1.07-.29.703-.695 1.174-.9 1.048-.204-.127-.371-.03-.371.215s-.288.445-.64.445c-.556 0-.547-.14.065-1.075.545-.832.794-.95 1.1-.525.28.391.32.32.135-.244-.142-.437.04-1.287.404-1.89.576-.953.521-.932-.422.164-.597.693-1.629 2.252-2.293 3.465-1.012 1.846-1.095 2.206-.514 2.21.382.003 1.485.456 2.45 1.009l1.756 1.004 1.12-2.374c1.187-2.515 2.73-4.565 5.706-7.583 2.268-2.3 4.034-3.398 5.472-3.4.61 0 1.929-.368 2.93-.816l1.82-.815 2.05 1.116c7.032 3.827 12.322 16.902 14.128 34.924.242 2.408.444 10.063.449 17.01.007 10.221-.153 13.911-.84 19.35-1.248 9.88-3.122 18.441-5.964 27.247-.49 1.52-.46 1.68.461 2.426 1.698 1.374.618 1.326-1.293-.058-1.455-1.055-2.195-1.304-3.714-1.254-2.772.093-2.946.053-2.946-.671 0-1.354-1.251-2.012-3.72-1.955-2.158.05-2.248.018-1.005-.357.75-.227 1.365-.48 1.365-.56 0-.082-1.587-.644-3.527-1.249-3.896-1.215-5.361-1.294-9.703-.53-2.353.415-2.916.658-2.82 1.219.082.48-.312.817-1.26 1.074-1.561.424-2.01.295-2.01-.577 0-.368.452-.624 1.155-.654.81-.034.918-.11.365-.251-.435-.112-1.19-.015-1.68.214-.49.229-2.537.929-4.55 1.556-3.215 1-3.585 1.214-3.045 1.755.338.338.6.837.582 1.11-.023.348-.096.34-.245-.03-.117-.289-.464-.525-.772-.525s-.655-.237-.772-.525c-.116-.29-.226-.089-.245.445-.018.533.143.86.358.728.215-.133.51-.05.655.185.145.235.064.427-.181.427s-.445.189-.445.42c0 .23.203.42.45.42.248 0 .734.283 1.08.63.347.346.995.63 1.44.63.446 0 .81.195.81.433 0 .239.39.578.867.755.854.316.853.328-.105.788-2.798 1.346-3.428 1.33-6.363-.158-1.124-.57-2.135-.941-2.25-.828-.554.555 3.629 2.561 7.3 3.5 3.508.9 5.09 1.06 10.631 1.075 4.181.011 8.012-.232 10.71-.68 6.186-1.027 13.717-2.81 14.76-3.493 1.13-.74 1.566-.175 1.005 1.299-.52 1.367-.2 2.312 1.176 3.485 1.378 1.175 1.772.86.55-.442l-.924-.983 1.436-3.76c3.726-9.764 7.05-24.996 8.236-37.741.56-6.01.552-25.527-.013-31.71-.505-5.53-1.963-13.196-3.552-18.675-3.66-12.62-10.455-21.142-17.79-22.315a6.097 6.097 0 00-1.071-.096zm-5.685 1.186c-.225 0-.61.378-.858.84-.247.462-.3.84-.116.84s.57-.378.859-.84c.29-.466.342-.84.115-.84zm5.442 2.52c.23 0 .42.284.42.63 0 .347-.19.63-.42.63-.231 0-.42-.283-.42-.63 0-.346.189-.63.42-.63zm-12.26 3.36c-.115 0-.552.378-.97.84-.418.462-.666.84-.55.84.115 0 .552-.378.97-.84.418-.462.666-.84.55-.84zm-7.295 10.641a.387.387 0 01.235.07c.231.142.42.342.42.444 0 .101-.189.185-.42.185-.23 0-.42-.2-.42-.445 0-.153.074-.243.185-.254zm-4.539 8.71c-.415-.015-.59.152-.45.513.114.299-.081 1.362-.434 2.362-.783 2.219-.783 2.134-.012 2.134 1.04 0 .759.9-2.256 7.2a2955.876 2955.876 0 00-4.467 9.389c.122.093.317.28.659.564.503-1.084 1.05-2.261 1.43-3.083 6.126-13.212 6.135-13.23 6.554-13.23.51 0 .498 1.08-.022 2-.227.402-2.422 5.077-4.877 10.39l-2.527 5.463c.027.065.076.171.145.314.14-.085.29-.169.444-.22 5.149-10.991 7.507-16.148 8.721-19.102.404-.982 1.004-1.785 1.335-1.785 1.1 0 .287-1-1.597-1.964-1.18-.603-2.112-.925-2.646-.945zm-6.554 24.03l-.004.01c.051.033.093.057.134.08l.014-.008c-.015-.038-.109-.075-.144-.082zm-1.363 2.948l-.007.016.007.034zm-2.93 6.347l-.037.081.068.056a.8.8 0 01-.031-.137zm-4.867 5.367a5305.63 5305.63 0 01-5.45 11.467 8698.259 8698.259 0 00-10.639 22.365c-1.175 2.483-2.198 4.578-2.274 4.654-.075.077-.504-.057-.953-.298-.637-.34-1.009-.256-1.7.388-.985.918-1.896 3.746-1.521 4.723.133.348.04.758-.206.91-.247.153-.449.466-.449.697 0 .231.15.327.335.213.184-.114.595-.046.913.15.648.401.36 1.125-4.483 11.267-1.51 3.163-3.192 6.696-3.736 7.85-.543 1.156-1.166 2.384-1.383 2.73-.217.347-.785 1.602-1.261 2.788-.477 1.187-2.025 4.589-3.44 7.56-1.415 2.972-2.995 6.348-3.51 7.503-1.21 2.709-2.11 3.492-3.216 2.801-.7-.436-.866-.374-1.184.446-1.372 3.532-3.49 7.088-5.236 8.794-1.863 1.818-2.098 1.93-3.246 1.53-1.108-.387-1.633-.203-5.043 1.765l-3.806 2.197-4.277-.733c-4.221-.723-4.32-.722-7.547.164-1.798.493-4.195 1.366-5.325 1.939-1.731.877-2.1 1.277-2.336 2.533-.154.821-.21 1.55-.124 1.622.516.427 26.532 13.5 28.065 14.103 1.406.552 2.214.64 3.26.35 2.138-.59 6.177-2.771 7.919-4.277 1.381-1.194 1.522-1.489 1.19-2.477-.35-1.035-4.958-5.347-5.716-5.347-.639 0-.325-.81.717-1.852 1.275-1.275 1.303-1.886.184-4.079l-.865-1.697 1.982-2.171c1.09-1.194 2.206-2.36 2.48-2.591.606-.51 2.198-3.953 2.98-6.446.54-1.72.525-1.84-.258-2.045-.458-.12-.833-.266-.833-.326 0-.135 2.22-4.98 4.78-10.437 1.067-2.273 1.94-4.207 1.94-4.297 0-.09 1.131-2.542 2.514-5.45 1.382-2.908 4.334-9.243 6.559-14.078 2.225-4.835 4.181-8.791 4.346-8.791.166 0 .301-.24.301-.534 0-.294 1.336-3.46 2.97-7.035 8.631-18.898 10.35-22.634 12.08-26.266 1.04-2.18 1.89-4.044 1.89-4.145 0-.089 1.612-3.626 3.622-7.97a379.03 379.03 0 00-1.01-.167zm2.169.479a9517.478 9517.478 0 01-15.78 33.878c-2.759 5.89-5.742 12.127-6.629 13.86-1.415 2.764-6.399 13.462-14.284 30.66-1.324 2.887-2.531 5.722-2.683 6.3-.368 1.406 3.077-5.726 8.186-16.946a920.414 920.414 0 018.72-18.48c2.5-5.117 4.837-9.965 5.197-10.774 1.059-2.38 10.789-23.495 14.612-31.71.289-.62 1.826-3.893 3.17-6.758a.932.932 0 01-.51-.03zm35.959 37.292c.19 0 .38.03.525.088.289.116.052.212-.525.212-.578 0-.813-.096-.525-.212.145-.058.335-.088.525-.088zm-15.27 1.406c.074-.003.143-.002.206 0 .42.02.58.154.33.37-.458.395-2.486.66-2.486.327 0-.209.52-.48 1.155-.601.303-.059.573-.09.795-.096zm14.589 1.9c1.47 0 2.636.896 2.162 1.662-.437.707-3.036.53-3.326-.227-.461-1.202-.272-1.435 1.164-1.435zm-21.999 1.68c.231 0 .42.189.42.42 0 .23-.189.42-.42.42a.421.421 0 01-.42-.42c0-.231.19-.42.42-.42zm-36.96.84c.231 0 .42.283.42.63 0 .346-.189.63-.42.63-.23 0-.42-.284-.42-.63 0-.347.19-.63.42-.63zm27.401 3.856c-.19.027-.467.29-.941.764-.904.904-1.098 1.68-.42 1.68.23 0 .42-.2.42-.445s.198-.322.44-.173c.301.186.285.46-.05.865-.392.472-.343.593.238.593.402 0 1.368.559 2.146 1.242 1.258 1.104 4.835 2.538 6.332 2.538.708 0 .698.234-.049 1.15a110.74 110.74 0 00-2.012 2.63c-1.752 2.349-4.286 3.435-5.943 2.547-1.514-.81-2.124-2.697-2.139-6.613-.007-1.896-.134-3.316-.282-3.156-.575.625-2.176 10.726-2.243 14.152a.95.95 0 01-.332.66c-.179.133-.007.983.383 1.89.39.907.663 2.27.607 3.026-.056.757.054 1.34.246 1.298 1.882-.42 4.228 4.282 3.63 7.275-.34 1.701-.835 1.456-.629-.311.256-2.19-1.002-5.218-2.16-5.198-.502.01-1.433-.11-2.068-.266-.739-.18-1.155-.113-1.155.187 0 .258-.274.47-.609.47-.335 0-.76.235-.945.524-.185.289-1.848 1.25-3.696 2.135-9.576 4.589-10.389 5.08-13.489 8.16-3.36 3.337-4.353 5.373-3.65 7.48 1.151 3.457 5.726 3.855 14.743 1.282 6.181-1.763 6.574-1.717 7.051.827.165.876.822 1.912 1.707 2.689 2.753 2.417 5.386 3.416 13.857 5.259.494.108 1.02.622 1.168 1.144.149.522 1.067 1.53 2.042 2.24.563.411 1.136.73 1.703.964-1.277-.495-.293-4.243 1.63-5.59 1.014-.71 2.664-.873 3.02-.296.123.198-.208.277-.734.177-.657-.126-1.395.226-2.352 1.12-1.242 1.16-1.37 1.485-1.17 2.973.124.92.084 1.67-.086 1.67a.861.861 0 01-.288-.046c1.812.738 3.558.565 4.683-.56.57-.57 1.035-1.327 1.035-1.684s.19-.649.42-.649c.55 0 .54-1.931-.015-2.968-.239-.447-.28-.812-.092-.812.189 0 .557.567.818 1.26.325.86.762 1.26 1.377 1.26.533 0 .788-.184.624-.449-.152-.247-.551-.344-.887-.215-.361.139-.497.054-.334-.21.15-.244.538-.343.862-.218.323.124.587.043.587-.181 0-.224-.472-.407-1.05-.407-.577 0-1.05-.157-1.05-.348 0-.19.567-.264 1.26-.162.992.146 1.336.466 1.612 1.502.202.757.604 1.286.945 1.244 2.509-.314 9.734-2.01 13.193-3.097a444.15 444.15 0 015.242-1.623c.791-.23 1.465-.004 2.803.94 2.613 1.841 5.244 1.974 7.705.389 3.236-2.085 5.406-6.021 5.442-9.87.01-1.097.207-1.995.438-1.995.812 0 .408-1.7-.698-2.942-.614-.69-2.143-1.833-3.396-2.54-1.779-1.004-2.21-1.442-1.973-1.997.618-1.441 1.417-8.908 1.055-9.848-.323-.838-.397-.861-.661-.208-.163.404-.567.735-.897.735-.47 0-.553.475-.386 2.205l.214 2.205-.45-1.89c-.249-1.04-.507-1.949-.574-2.02-.068-.071-.818.16-1.667.516-.85.354-1.74.601-1.98.549-.24-.053-.705.802-1.034 1.9-.33 1.097-.77 1.995-.981 1.995-.772 0-.87-.847-.24-2.067.883-1.706.819-2.553-.192-2.553-.462 0-.84.209-.84.465 0 .258-.306.347-.69.2-.934-.359-2.67.843-2.67 1.85 0 .448-.378 1.017-.84 1.265-.965.516-1.025.13-.57-3.65l.26-2.18 4.88-1.739a838.17 838.17 0 005.72-2.054c.462-.173 1.502-.3 2.31-.28 1.256.028 1.488.19 1.596 1.113l.125 1.081 2.075-1.027 2.074-1.026-.1-6.425c-.055-3.533-.198-6.522-.318-6.642-.12-.12-1.01-.112-1.977.019l-1.758.235.087 3.485c.073 2.963-.045 3.66-.792 4.663-1.02 1.368-3.352 2.061-3.72 1.105-.127-.334-.232-2.55-.232-4.925v-4.319l-1.89-.722c-1.04-.397-1.89-.906-1.89-1.132 0-.225-.221-.273-.491-.106-.33.204-.404.075-.224-.395.342-.89-.664-.938-1.388-.067-.602.726-5.698 2.324-10.917 3.423-4.571.963-17.264.958-22.78-.008-5.966-1.046-9.616-3.115-10.203-5.786-.176-.804-.273-1.16-.516-1.125zm44.84 1.604c-.023-.022-.193.105-.526.366-.404.317-.735.648-.735.735 0 .346.345.124.894-.576.26-.333.388-.503.366-.525zm-33.636 1.732a1.153 1.153 0 00-.464.08c-.335.135-.235.234.254.255.443.018.691-.081.552-.221-.07-.07-.196-.108-.342-.114zm2.1.42a1.153 1.153 0 00-.463.081c-.336.134-.236.234.253.254.443.018.69-.081.551-.22-.07-.07-.195-.11-.34-.115zm-45.183.528a.285.285 0 00-.147.053c-.228.14-.415.434-.415.652 0 .604.301.47.58-.257.108-.28.095-.445-.018-.448zm44.28.515c-.722 0-.965.058-.532.168 1.274.321 6.378.545 6.055.265-.096-.083-1.782-.248-3.745-.367a31.279 31.279 0 00-1.777-.066zm-3.472.588l1.26.44c.693.241 2.961.58 5.04.755 4.512.377 9.928.38 9.527.004-.158-.147-3.216-.38-6.797-.52-3.58-.137-7.077-.347-7.77-.465zm-41.55.837c-.116 0-.412.378-.66.84-.247.462-.355.84-.24.84.116 0 .413-.378.66-.84.247-.462.355-.84.24-.84zm43.352 2.143c.166 0 .313.042.409.138.156.157.007.46-.333.675-.813.514-1.248.504-1.248-.03 0-.405.673-.782 1.172-.783zm-44.61.491a.555.555 0 00-.242.096c-.23.143-.416.579-.413.97.005.611.062.623.413.08.432-.668.513-1.16.243-1.146zm31.41 2.551c.04.006.084.07.135.196.121.303.106.666-.033.805-.14.14-.24-.109-.221-.551.013-.306.056-.46.12-.45zm-33.835 2.458c-.073.002-.197.12-.337.337-.224.346-.407.819-.407 1.05 0 .23.183.137.407-.21.224-.346.407-.819.407-1.05 0-.087-.026-.128-.07-.127zm89.263 2.203c.128.006.16.09.067.239-.14.228.086.42.504.427.632.011.654.073.13.37-1.494.845-2.521.947-2.521.252 0-.376.19-.567.42-.424.231.143.42.08.42-.14 0-.22.293-.513.652-.65a.874.874 0 01.328-.074zm-1.759 3.224c-.037-.005.005.154.104.475.126.404.035.735-.203.735-.237 0-.304.205-.15.457.187.301.424.315.7.04.274-.275.247-.68-.08-1.192-.216-.338-.333-.509-.37-.515zm-2.026 1.022c-.168-.015-.185.188.058.58.152.246.462.448.688.448.227 0 .169-.264-.13-.588-.263-.286-.486-.429-.616-.44zm-1.431.33a1.536 1.536 0 00-.642.196c-.652.365-.602.415.359.358.616-.037.956-.227.758-.424-.099-.1-.273-.142-.475-.13zm-87.407.362c-.073.001-.197.12-.337.336-.224.346-.407.819-.407 1.05 0 .231.183.136.407-.21.224-.347.407-.819.407-1.05 0-.086-.026-.128-.07-.126zm88.728.756c-.476 0-.865.189-.865.42 0 .23.272.42.605.42.333 0 .723-.19.865-.42.143-.231-.13-.42-.605-.42zm-4.648.576c-.172.005-.449.044-.837.115-.808.148-1.549.337-1.645.42-.417.355 1.916.096 2.485-.277.277-.181.286-.266-.003-.258zm5.278.684c-.36 0-.655.19-.655.42 0 .231.178.42.395.42.218 0 .512-.189.655-.42.143-.23-.035-.42-.395-.42zm-51.701.179c.168.01.418.176.638.44.605.73.49.8-.4.237-.34-.215-.508-.5-.375-.633.034-.034.08-.048.137-.044zm43.219.386c-.064-.01-.107.144-.12.45-.018.443.081.69.22.551.14-.14.155-.502.034-.805-.05-.126-.096-.19-.134-.196zm3.12.11c-.466.008-1.196.282-1.436.671-.14.227.17.343.709.264.527-.077 1.031-.361 1.12-.632.072-.219-.113-.309-.393-.304zm-13.281.818c.182-.02.348.869.348 2.682 0 1.842-.171 2.965-.453 2.965-.285 0-.351.467-.177 1.26.152.693.188 1.26.08 1.26-.304 0-.762-2.096-.538-2.459.11-.176.24-1.499.293-2.939.065-1.82.264-2.749.447-2.769zm-2.051.337c.072-.004.115-.003.12.004.016.03-.215 1.095-.513 2.366-.495 2.106-.53 2.152-.385.525.133-1.512.039-1.785-.618-1.785-1.376 0-1.28-.74.125-.953a16.848 16.848 0 011.27-.157zm11.898 1.53c-.088 0-.26.378-.38.84-.121.462-.049.84.16.84.21 0 .381-.378.381-.84 0-.462-.072-.84-.16-.84zm-1.226 3.095a.04.04 0 01.026.003c.038.019.06.106.065.262.013.346-.16.913-.384 1.26-.496.768-.496.104 0-1.05.13-.303.228-.462.293-.475zm-45.467 4.639c.117 0 .232.002.346.007 1.101.047 2.226.309 2.5.582.323.324.34.497.046.497-.247 0-.583 1.18-.746 2.62-.163 1.442-.503 2.87-.755 3.175-.253.304-.286.501-.073.44.412-.121 3.956 2.95 3.956 3.426 0 .157-.481.503-1.07.772-1.335.608-1.188.624-2.262-.248-.498-.404-.978-1.302-1.068-1.995a85.832 85.832 0 00-.198-1.47c-.019-.115-.194.04-.388.347-.241.38-.435.054-.61-1.023-.148-.914-.064-1.814.201-2.133.63-.757-.04-.709-3.635.265a25288.9 25288.9 0 00-6.81 1.845c-2.127.578-4.065 1.171-4.304 1.32-.744.459-.478-.706.3-1.313 6.028-4.71 10.946-7.11 14.57-7.114zm31.28 3.657c.145.007.27.045.34.115.14.14-.108.24-.551.22-.49-.02-.589-.119-.254-.253.152-.06.318-.088.464-.082zm29.224.694l1.05.615c.577.339 1.298 1.118 1.6 1.732.303.614.476 1.824.386 2.687l-.165 1.57-.07-1.602c-.08-1.82-.639-3.044-1.918-4.202zm-26.286 1.84c.33.012.456.162.456.476 0 .514-.84.686-4.305.883-9.288.528-11.655.534-11.655.034 0-.337 2.096-.574 6.825-.771 3.754-.157 7.345-.398 7.98-.535.216-.047.396-.076.545-.085.055-.004.107-.003.154-.003zm28.91 5.026c.04.012.06.16.073.45.018.392-.457 1.243-1.055 1.89l-1.089 1.179.819-1.26c.45-.693.925-1.544 1.055-1.89.096-.257.157-.38.197-.369zm-3.453 2.935c.253-.016.474.169.848.543.505.505.443.684-.435 1.26-1.237.81-1.255.811-1.827.121-.341-.41-.247-.73.373-1.26.503-.43.788-.648 1.04-.664zm-.22.794c-.232 0-.42.189-.42.42 0 .23.188.42.42.42a.421.421 0 000-.84zm-127.373 5.532c.338.006.7.047 1.134.112 2.227.334 2.285.62.178.88-1.011.126-1.232.061-.78-.228 1.169-.748-1.35-.452-3.163.372-.932.423-2.007 1.081-2.389 1.464-.415.415-.798.527-.952.278-.142-.23.95-1.013 2.427-1.741 1.751-.864 2.532-1.155 3.545-1.137zm3.869.73c.106-.009-.273.38-1.185 1.241-1.01.955-2.04 1.737-2.285 1.737-.246 0-.099-.255.327-.566.488-.357.649-.77.435-1.115-.224-.364-.174-.448.15-.248.267.166 1.1-.113 1.85-.621.404-.275.644-.423.708-.428zm-6.487 1.31c.231 0 .136.184-.21.408-.347.224-.82.407-1.05.407-.231 0-.136-.183.21-.407.347-.224.82-.407 1.05-.407zm-2.064 1.323c.193-.007.776.215 1.407.541.722.373 1.524.547 1.784.386.26-.16.359-.107.22.119-.14.225 1.726 1.321 4.147 2.435 2.42 1.113 4.509 2.199 4.64 2.412.132.213.127.501-.012.64-.139.138-.252.031-.252-.238 0-.27-.31-.49-.69-.49-.749 0-11.556-5.535-11.302-5.788.01-.01.03-.016.058-.017zm20.544.357l2.2 1.286 2.199 1.285-.664 1.284c-.544 1.052-.563 1.347-.107 1.63.395.243.07.547-1.115 1.04-.92.383-2.146.932-2.723 1.22-.903.452-1.345.388-3.15-.454-1.155-.539-2.025-1.126-1.933-1.306.091-.18.71-.658 1.375-1.062.665-.405 1.381-1.16 1.591-1.68.21-.52.82-1.462 1.355-2.094zm-15.725.408c.245 0 .328.189.185.42-.143.23-.343.42-.445.42-.102 0-.185-.19-.185-.42 0-.231.2-.42.445-.42zm12.82 2.228c.136.005.043.156-.245.503-.297.357-.63.559-.74.448-.11-.11-.884.263-1.718.83-1.419.964-2.162 1.26-2.162.86 0-.22 3.332-2.131 4.364-2.503.255-.091.42-.14.501-.138zm-4.558 3.251c.256 0 .663.2 1.188.598.817.618.613.712-.76.353-.404-.105-.735-.367-.735-.58 0-.247.108-.37.307-.37zm14.11.548c.467.002.578.087.283.244-.346.184-1.386.448-2.31.583-1.362.202-1.526.161-.866-.217.447-.257 1.486-.52 2.31-.584.233-.018.428-.026.583-.026zm-11.834.816c.031-.02.282.095.777.33.578.276 1.129.57 1.225.654.576.504-.79.036-1.46-.5-.384-.308-.573-.464-.542-.484zm7.287.31c.23 0 .137.183-.21.407-.346.224-.819.407-1.05.407-.231 0-.136-.183.21-.407.347-.224.819-.407 1.05-.407z" fill="#666"></path></svg>